<svg width="35" height="34" viewBox="0 0 35 34" fill="none" xmlns="http://www.w3.org/2000/svg">
<g clip-path="url(#clip0_13_403)">
<path d="M17.1042 0C7.65816 0 0 7.65817 0 17.1042C0 25.6408 6.25604 32.7161 14.4323 34V22.0482H10.0908V17.1042H14.4323V13.337C14.4323 9.04902 16.9859 6.68119 20.8938 6.68119C22.7661 6.68119 24.7229 7.01623 24.7229 7.01623V11.2254H22.5662C20.4405 11.2254 19.7789 12.5431 19.7789 13.8973V17.107H24.523L23.7657 22.051H19.7789V34.0028C27.9551 32.7189 34.2112 25.6436 34.2112 17.107C34.2083 7.65816 26.5502 0 17.1042 0Z" fill="#1877F2"/>
</g>
<defs>
<clipPath id="clip0_13_403">
<rect width="34.2083" height="34" fill="white"/>
</clipPath>
</defs>
</svg>
