<svg width="34" height="34" viewBox="0 0 34 34" fill="none" xmlns="http://www.w3.org/2000/svg">
<g clip-path="url(#clip0_13_381)">
<path d="M28.1162 7.92581C28.1162 6.79442 27.1994 5.88379 26.0741 5.88379C24.9489 5.88379 24.0321 6.79749 24.0321 7.92581C24.0321 9.05414 24.9489 9.96477 26.0741 9.96477C27.1994 9.96477 28.1162 9.05107 28.1162 7.92581Z" fill="url(#paint0_linear_13_381)"/>
<path d="M30.8358 23.8696C30.7591 25.5284 30.4832 26.4267 30.2532 27.0277C29.9435 27.8218 29.5756 28.389 28.9777 28.9839C28.386 29.5787 27.8187 29.9466 27.0246 30.2532C26.4267 30.4862 25.5222 30.7653 23.8635 30.845C22.0729 30.9247 21.5394 30.94 16.9954 30.94C12.4514 30.94 11.921 30.9247 10.1273 30.845C8.46857 30.7653 7.5702 30.4893 6.97232 30.2532C6.17513 29.9466 5.61097 29.5787 5.01614 28.9839C4.41825 28.389 4.04725 27.8218 3.74371 27.0277C3.51375 26.4298 3.23167 25.5284 3.16115 23.8696C3.0753 22.079 3.0569 21.5394 3.0569 17.0015C3.0569 12.4637 3.07223 11.921 3.16115 10.1304C3.23167 8.47164 3.51375 7.57327 3.74371 6.96925C4.04725 6.17819 4.41825 5.61403 5.01614 5.01921C5.61097 4.42439 6.17513 4.05645 6.97232 3.74678C7.5702 3.51375 8.47164 3.2378 10.1273 3.15808C11.9179 3.07837 12.4545 3.05997 16.9954 3.05997C21.5363 3.05997 22.0698 3.08143 23.8635 3.15808C25.5222 3.2378 26.4237 3.51069 27.0246 3.74678C27.8187 4.05645 28.386 4.42439 28.9777 5.01921C29.5756 5.61403 29.9435 6.17819 30.2532 6.96925C30.4832 7.57327 30.7622 8.47164 30.8358 10.1304C30.9186 11.921 30.94 12.4576 30.94 17.0015C30.94 21.5455 30.9186 22.0759 30.8358 23.8696ZM33.8958 9.99242C33.813 8.18036 33.5278 6.94472 33.1016 5.86545C32.6693 4.74633 32.0898 3.7989 31.1424 2.85147C30.198 1.90712 29.2506 1.32762 28.1315 0.892236C27.0491 0.47218 25.8166 0.183966 24.0045 0.104247C22.1924 0.0153305 21.613 0 16.9954 0C12.3779 0 11.7984 0.0153305 9.98629 0.104247C8.17729 0.183966 6.94472 0.47218 5.85932 0.892236C4.74633 1.32762 3.7989 1.90712 2.85454 2.85147C1.90712 3.7989 1.32762 4.74633 0.892236 5.86545C0.47218 6.94472 0.187032 8.18036 0.0981153 9.99242C0.0183966 11.8045 0 12.384 0 17.0046C0 21.6252 0.0214627 22.1986 0.0981153 24.0106C0.187032 25.8196 0.47218 27.0553 0.892236 28.1376C1.32762 29.2506 1.90712 30.2042 2.85454 31.1485C3.7989 32.0929 4.74633 32.6754 5.85932 33.1108C6.94779 33.5309 8.18036 33.816 9.98629 33.8988C11.7984 33.9816 12.3809 34.0031 16.9954 34.0031C21.6099 34.0031 22.1924 33.9816 24.0045 33.8988C25.8166 33.816 27.0491 33.5309 28.1315 33.1108C29.2506 32.6754 30.198 32.0929 31.1424 31.1485C32.0898 30.2042 32.6693 29.2537 33.1016 28.1376C33.5248 27.0553 33.813 25.8166 33.8958 24.0106C33.9785 22.1986 34 21.6191 34 17.0046C34 12.3901 33.9785 11.8045 33.8958 9.99242Z" fill="url(#paint1_linear_13_381)"/>
<path d="M16.9985 22.6645C13.871 22.6645 11.3323 20.1319 11.3323 17.0014C11.3323 13.8709 13.871 11.3322 16.9985 11.3322C20.1259 11.3322 22.6677 13.8709 22.6677 17.0014C22.6677 20.1319 20.1259 22.6645 16.9985 22.6645ZM16.9985 8.26611C12.1755 8.26611 8.27234 12.1785 8.27234 17.0014C8.27234 21.8244 12.1786 25.7276 16.9985 25.7276C21.8184 25.7276 25.7307 21.8183 25.7307 17.0014C25.7307 12.1846 21.8214 8.26611 16.9985 8.26611Z" fill="url(#paint2_linear_13_381)"/>
</g>
<defs>
<linearGradient id="paint0_linear_13_381" x1="0.366158" y1="34.1307" x2="31.2661" y2="3.26114" gradientUnits="userSpaceOnUse">
<stop stop-color="#FFD521"/>
<stop offset="0.05" stop-color="#FFD521"/>
<stop offset="0.5" stop-color="#F50000"/>
<stop offset="0.95" stop-color="#B900B4"/>
<stop offset="1" stop-color="#B900B4"/>
</linearGradient>
<linearGradient id="paint1_linear_13_381" x1="0.13319" y1="33.5558" x2="31.0018" y2="2.65684" gradientUnits="userSpaceOnUse">
<stop stop-color="#FFD521"/>
<stop offset="0.05" stop-color="#FFD521"/>
<stop offset="0.5" stop-color="#F50000"/>
<stop offset="0.95" stop-color="#B900B4"/>
<stop offset="1" stop-color="#B900B4"/>
</linearGradient>
<linearGradient id="paint2_linear_13_381" x1="0.182123" y1="33.4857" x2="31.0508" y2="2.61701" gradientUnits="userSpaceOnUse">
<stop stop-color="#FFD521"/>
<stop offset="0.05" stop-color="#FFD521"/>
<stop offset="0.5" stop-color="#F50000"/>
<stop offset="0.95" stop-color="#B900B4"/>
<stop offset="1" stop-color="#B900B4"/>
</linearGradient>
<clipPath id="clip0_13_381">
<rect width="34" height="34" fill="white"/>
</clipPath>
</defs>
</svg>
