<svg width="34" height="34" viewBox="0 0 34 34" fill="none" xmlns="http://www.w3.org/2000/svg">
<g clip-path="url(#clip0_13_387)">
<path fill-rule="evenodd" clip-rule="evenodd" d="M3.40122 0H30.6018C32.4812 0 34.0031 1.52184 34.0031 3.40122V30.6018C34.0031 32.4812 32.4812 34.0031 30.6018 34.0031H3.40122C1.52184 34.0031 0 32.4812 0 30.6018V3.40122C0 1.52184 1.52184 0 3.40122 0Z" fill="#010101"/>
<path fill-rule="evenodd" clip-rule="evenodd" d="M21.3485 31.2804C22.3845 31.2804 23.2218 30.4492 23.2218 29.4224C23.2218 28.3957 22.3845 27.5645 21.3485 27.5645H21.0674C22.1033 27.5645 22.9407 28.3957 22.9407 29.4224C22.9407 30.4492 22.1033 31.2804 21.0674 31.2804H21.3485Z" fill="#EE1D51"/>
<path fill-rule="evenodd" clip-rule="evenodd" d="M21.043 27.5645H20.7618C19.7259 27.5645 18.8885 28.3957 18.8885 29.4224C18.8885 30.4492 19.7289 31.2804 20.7618 31.2804H21.043C20.007 31.2804 19.1697 30.4492 19.1697 29.4224C19.1697 28.3957 20.007 27.5645 21.043 27.5645Z" fill="#66C8CF"/>
<path d="M21.0552 30.3267C21.5581 30.3267 21.9659 29.9217 21.9659 29.4221C21.9659 28.9226 21.5581 28.5176 21.0552 28.5176C20.5522 28.5176 20.1445 28.9226 20.1445 29.4221C20.1445 29.9217 20.5522 30.3267 21.0552 30.3267Z" fill="#010101"/>
<path fill-rule="evenodd" clip-rule="evenodd" d="M6.79944 26.7238V27.665H7.90262V31.2526H9.0058V27.6894H9.90424L10.2129 26.7207H6.79944V26.7238ZM15.8327 26.7238V27.665H16.9359V31.2526H18.0391V27.6894H18.9375L19.2461 26.7207H15.8327V26.7238ZM10.4176 27.2585C10.4176 26.9621 10.659 26.7238 10.9555 26.7238C11.2519 26.7238 11.4933 26.9621 11.4933 27.2585C11.4933 27.555 11.2519 27.7933 10.9555 27.7933C10.659 27.7933 10.4176 27.555 10.4176 27.2585ZM10.4176 28.1753H11.4964V31.2557H10.4176V28.1753ZM11.9578 26.7238V31.2557H13.0365V30.0853L13.3696 29.7797L14.4209 31.2801H15.576L14.0633 29.0921L15.4232 27.7689H14.1153L13.0365 28.8384V26.7268H11.9578V26.7238ZM23.5825 26.7238V31.2557H24.6612V30.0853L24.9943 29.7797L26.0455 31.2801H27.2007L25.688 29.0921L27.0479 27.7689H25.7399L24.6612 28.8384V26.7268H23.5825V26.7238Z" fill="white"/>
<path fill-rule="evenodd" clip-rule="evenodd" d="M21.92 11.0408C23.4082 12.1043 25.2326 12.7307 27.2006 12.7307V8.94445C26.8278 8.94445 26.455 8.90472 26.0913 8.82832V11.8109C24.1233 11.8109 22.2989 11.1844 20.8107 10.121V17.8494C20.8107 21.7151 17.6753 24.8504 13.8066 24.8504C12.3642 24.8504 11.0226 24.4134 9.90723 23.6678C11.1785 24.9666 12.954 25.7733 14.9159 25.7733C18.7846 25.7733 21.92 22.638 21.92 18.7722V11.0439V11.0408ZM23.289 7.22092C22.5281 6.38971 22.03 5.31709 21.92 4.1314V3.64551H20.8688C21.1346 5.15512 22.0361 6.44166 23.289 7.22397V7.22092ZM12.355 20.7005C11.9302 20.1443 11.701 19.4629 11.701 18.7631C11.701 16.9937 13.1343 15.5605 14.9067 15.5605C15.2367 15.5605 15.5637 15.6094 15.8785 15.7102V11.8384C15.5118 11.7895 15.1389 11.7681 14.7692 11.7742V14.7873C14.4544 14.6865 14.1274 14.6376 13.7974 14.6376C12.028 14.6376 10.5917 16.0708 10.5917 17.8402C10.5917 19.0901 11.3099 20.1749 12.355 20.7005Z" fill="#EE1D52"/>
<path fill-rule="evenodd" clip-rule="evenodd" d="M20.8107 10.1182C22.299 11.1816 24.1233 11.8081 26.0913 11.8081V8.82552C24.9912 8.59021 24.0194 8.01876 23.286 7.21811C22.0331 6.4358 21.1316 5.14927 20.8657 3.63965H18.1062V18.7694C18.1001 20.5327 16.6669 21.9598 14.9006 21.9598C13.8585 21.9598 12.9357 21.4647 12.3489 20.6947C11.3038 20.166 10.5857 19.0842 10.5857 17.8343C10.5857 16.065 12.0189 14.6317 13.7913 14.6317C14.1305 14.6317 14.4575 14.6837 14.7631 14.7815V11.7684C10.9615 11.8478 7.90564 14.9496 7.90564 18.7664C7.90564 20.6733 8.66656 22.3999 9.90115 23.6619C11.0166 24.4106 12.3581 24.8446 13.8005 24.8446C17.6693 24.8446 20.8046 21.7092 20.8046 17.8435V10.1151L20.8107 10.1182Z" fill="white"/>
<path fill-rule="evenodd" clip-rule="evenodd" d="M26.0914 8.82542V8.01867C25.1013 8.01867 24.1295 7.74363 23.286 7.21802C24.0317 8.03395 25.0096 8.59318 26.0914 8.82542ZM20.8688 3.63955C20.8444 3.49593 20.823 3.34924 20.8108 3.20562V2.71973H17V17.8495C16.9939 19.6128 15.5607 21.0399 13.7944 21.0399C13.2749 21.0399 12.786 20.9176 12.352 20.6976C12.9388 21.4646 13.8616 21.9628 14.9037 21.9628C16.67 21.9628 18.1032 20.5357 18.1093 18.7724V3.64261H20.8688V3.63955ZM14.7662 11.7683V10.9096C14.4484 10.8668 14.1275 10.8454 13.8036 10.8454C9.9348 10.8454 6.79944 13.9807 6.79944 17.8465C6.79944 20.2698 8.03097 22.4059 9.90424 23.6649C8.66965 22.4028 7.90873 20.6762 7.90873 18.7693C7.90873 14.9525 10.9646 11.8477 14.7662 11.7713V11.7683Z" fill="#69C9D0"/>
<path fill-rule="evenodd" clip-rule="evenodd" d="M21.0674 31.2804C22.1033 31.2804 22.9407 30.4492 22.9407 29.4224C22.9407 28.3957 22.1003 27.5645 21.0674 27.5645H21.0429C20.007 27.5645 19.1697 28.3957 19.1697 29.4224C19.1697 30.4492 20.007 31.2804 21.0429 31.2804H21.0674ZM20.1445 29.4224C20.1445 28.9243 20.554 28.5179 21.0552 28.5179C21.5563 28.5179 21.9658 28.9213 21.9658 29.4224C21.9658 29.9236 21.5563 30.327 21.0552 30.327C20.5509 30.327 20.1445 29.9236 20.1445 29.4224Z" fill="white"/>
</g>
<defs>
<clipPath id="clip0_13_387">
<rect width="34" height="34" fill="white"/>
</clipPath>
</defs>
</svg>
