<svg width="34" height="34" viewBox="0 0 34 34" fill="none" xmlns="http://www.w3.org/2000/svg">
<g clip-path="url(#clip0_13_397)">
<path d="M20.1354 19.9459C17.6204 16.3491 15.1054 12.7493 12.5904 9.15246C12.5781 9.13412 12.5629 9.11579 12.5506 9.09745C12.5384 9.07606 12.5201 9.06689 12.4926 9.06689C12.4712 9.06689 12.4528 9.06689 12.4314 9.06689C11.7989 9.06689 11.1663 9.06689 10.5337 9.06689C10.3962 9.06689 10.2587 9.06689 10.1212 9.06689C10.1028 9.06689 10.0845 9.06995 10.054 9.07606C13.8616 14.5217 17.6601 19.9581 21.4586 25.3885C21.6022 25.4007 23.8666 25.3946 23.9308 25.3824C23.9094 25.3518 23.8911 25.3213 23.8697 25.2937C22.6229 23.5122 21.3791 21.7275 20.1323 19.9459H20.1354Z" fill="#010101"/>
<path d="M0 0V34H34V0H0ZM20.6976 26.5497C20.6854 26.5314 20.6763 26.51 20.664 26.4916C19.0322 24.1141 17.3973 21.7367 15.7654 19.3622C15.7501 19.3408 15.7349 19.3225 15.7165 19.295C15.6921 19.3225 15.6707 19.3469 15.6493 19.3714C14.6531 20.5296 13.6568 21.6878 12.6606 22.8459C11.6888 23.9736 10.7171 25.1043 9.74834 26.2319C9.65666 26.3388 9.56804 26.4458 9.47636 26.5528H7.85979C8.08593 26.29 8.31206 26.0241 8.5382 25.7613C9.4947 24.6489 10.4512 23.5366 11.4077 22.4273C12.2725 21.4249 13.1343 20.4196 13.9991 19.4172C14.3169 19.0475 14.6347 18.6777 14.9525 18.3079C14.9678 18.2896 14.98 18.2713 14.9984 18.2529C12.6209 14.7906 10.2434 11.3313 7.85673 7.85979H13.3054C14.8761 10.1456 16.4469 12.4345 18.0237 14.7264C18.0421 14.7081 18.0604 14.6928 18.0726 14.6745C18.6043 14.0572 19.1361 13.4368 19.6678 12.8195C20.5265 11.8202 21.3883 10.821 22.247 9.81862C22.794 9.18299 23.341 8.54737 23.888 7.91174C23.9216 7.87201 23.9552 7.85368 24.0102 7.85368C24.4961 7.85368 24.982 7.85368 25.4679 7.85368H25.5321V7.86896V7.87507L25.5229 7.88729L25.5168 7.8934L25.5107 7.89951L25.4954 7.91785C25.4954 7.91785 25.471 7.94535 25.4618 7.95758C23.234 10.549 21.0032 13.1404 18.7755 15.7318L18.7663 15.744L18.7602 15.7501L18.751 15.7624V15.7685L18.7449 15.7807C18.7602 15.8021 18.7755 15.8265 18.7938 15.854C19.8939 17.4553 20.9941 19.0536 22.0911 20.6549C23.396 22.5526 24.6978 24.4503 26.0027 26.348C26.0394 26.4 26.076 26.4519 26.1097 26.5039C26.1219 26.5191 26.128 26.5405 26.1372 26.5558H20.6946L20.6976 26.5497Z" fill="#010101"/>
</g>
<defs>
<clipPath id="clip0_13_397">
<rect width="34" height="34" fill="white"/>
</clipPath>
</defs>
</svg>
