<svg width="37" height="26" viewBox="0 0 37 26" fill="none" xmlns="http://www.w3.org/2000/svg">
<g clip-path="url(#clip0_13_400)">
<path d="M36.2374 4.04341C35.8116 2.44995 34.5637 1.1951 32.9791 0.766854C30.0873 0 18.5132 0 18.5132 0C18.5132 0 6.94245 0 4.04729 0.766854C2.46601 1.1951 1.21815 2.44995 0.792291 4.04341C0 6.95148 0 13.0133 0 13.0133C0 13.0133 0 19.0751 0.76258 21.9566C1.21815 23.5501 2.46931 24.8049 4.05059 25.2331C6.94245 26 18.5165 26 18.5165 26C18.5165 26 30.0873 26 32.9824 25.2331C34.567 24.8049 35.8149 23.5501 36.2407 21.9566C37.0033 19.0485 37.0033 13.0133 37.0033 13.0133C37.0033 13.0133 37.0033 6.95148 36.2407 4.04009L36.2374 4.04341Z" fill="#FF0000"/>
<path d="M14.7993 18.5871L24.4224 13.0133L14.7993 7.40967V18.5871Z" fill="white"/>
</g>
<defs>
<clipPath id="clip0_13_400">
<rect width="37" height="26" fill="white"/>
</clipPath>
</defs>
</svg>
