<svg width="16" height="15" viewBox="0 0 16 15" fill="none" xmlns="http://www.w3.org/2000/svg">
<path d="M13.6988 9.8174C13.807 9.88085 13.8982 9.9443 13.9836 10.0424C14.0292 10.0885 14.0919 10.1231 14.1488 10.1693C14.2571 10.2615 14.3596 10.3711 14.4906 10.4461C14.502 10.4577 14.5191 10.4577 14.5305 10.4577C14.5419 10.4577 14.5476 10.4461 14.559 10.4404C14.5989 10.3942 14.6331 10.3481 14.6559 10.3019C14.6729 10.2731 14.6729 10.2385 14.6957 10.2039C14.7356 10.1289 14.7755 10.0654 14.8154 9.99045C14.8894 9.83471 14.9407 9.6732 14.992 9.50592C15.0888 9.15406 15.1458 8.79067 15.1743 8.42728C15.1914 8.20232 15.2141 7.98313 15.2141 7.75817C15.2312 7.20443 15.1857 6.64492 15.0888 6.10848C15.0318 5.80854 14.9407 5.5259 14.8495 5.23749C14.8097 5.13943 14.804 5.02407 14.7698 4.9087C14.7584 4.86833 14.7413 4.83372 14.7128 4.81065C14.7014 4.79911 14.616 4.70105 14.6331 4.70105C14.5419 4.72989 14.4508 4.77604 14.371 4.81065C14.3311 4.82795 14.297 4.83949 14.2628 4.86833C14.0976 4.97792 13.9495 5.12789 13.7785 5.24902C13.4823 5.44514 13.1918 5.62972 12.8955 5.82584C12.7702 5.90659 12.3088 6.09118 12.229 6.21231C12.2119 6.22384 12.2176 6.24115 12.2119 6.25845C12.2005 6.27576 12.1948 6.27576 12.172 6.28729C12.1322 6.31613 12.1094 6.33344 12.0752 6.36228C12.0125 6.40842 11.9385 6.46034 11.8758 6.51225C11.8302 6.55263 11.8017 6.5757 11.7676 6.61031C11.7334 6.64492 11.6878 6.66799 11.6479 6.69106C11.5397 6.76605 11.4371 6.8468 11.3517 6.9564C11.2036 7.15251 11.1409 7.42362 11.2548 7.64281C11.3118 7.7524 11.403 7.82739 11.4941 7.90814C12.1891 8.53687 12.924 9.3098 13.7273 9.81163L13.6988 9.8174Z" fill="white"/>
<path d="M14.1374 3.2244C14.1545 3.26478 14.183 3.30515 14.1659 3.3513C14.1488 3.39167 14.109 3.41475 14.0691 3.42628C13.0266 3.86466 11.9613 4.26843 10.8903 4.64913C10.6339 4.74142 10.3604 4.83371 10.0927 4.77026C9.73379 4.68951 9.49453 4.35496 9.3692 4.00887C9.24387 3.66278 9.20399 3.29362 9.07296 2.9533C8.99321 2.72257 8.8337 2.48031 8.59443 2.41686C8.30959 2.35341 8.02475 2.56683 7.88802 2.8264C7.7513 3.08596 7.70572 3.38014 7.59179 3.65701C7.48355 3.92235 7.24998 4.19345 6.97083 4.20498C6.74296 4.21652 6.53218 4.07808 6.34988 3.93965C5.5865 3.37437 4.82882 2.80909 4.07115 2.23228C3.87745 2.09384 3.69516 1.9554 3.50146 1.81697C3.41031 1.74198 3.30777 1.67853 3.21662 1.60355C3.15965 1.5574 3.0799 1.52279 3.03432 1.46511C2.98875 1.40743 2.97166 1.31514 3.03432 1.26899C3.10838 1.21131 3.18814 1.17094 3.2622 1.11902C3.42741 1.00943 3.60401 0.905601 3.78061 0.813311C4.13951 0.62873 4.5155 0.467221 4.88579 0.346089C5.26748 0.224958 5.66626 0.132668 6.05934 0.0807549C6.46382 0.0230734 6.86259 0 7.26137 0H7.3867C8.44061 0.0173045 9.49453 0.230726 10.4915 0.582584C10.9871 0.761396 11.4827 0.963282 11.9499 1.21131C12.0467 1.26899 12.1492 1.3036 12.2518 1.36705C12.2803 1.38436 12.3088 1.40743 12.3315 1.4305C12.36 1.45934 12.3885 1.48818 12.4227 1.50549C12.548 1.58624 12.6791 1.67276 12.8044 1.75352C12.9297 1.83427 13.0493 1.94964 13.169 2.05346C13.4652 2.31303 13.7159 2.60144 13.9381 2.92445C14.0064 3.01675 14.0634 3.1148 14.126 3.21863L14.1374 3.2244Z" fill="white"/>
<path d="M4.79462 11.7843C4.55535 11.9054 4.31039 12.0323 4.07112 12.1535C3.96288 12.2111 3.84895 12.2746 3.74071 12.338C3.49575 12.4765 3.24509 12.6149 3.00012 12.7533C2.88049 12.8168 2.76085 12.8802 2.63552 12.9495C2.56146 12.9898 2.4988 13.0244 2.42474 13.0591C2.39626 13.0706 2.33359 13.0879 2.3279 13.1167C2.3165 13.134 2.3165 13.1917 2.3279 13.209C2.33929 13.2667 2.40765 13.3071 2.45323 13.3359C2.54437 13.4109 2.64692 13.4744 2.74946 13.5378C2.88618 13.6186 3.02291 13.7051 3.17103 13.7628C3.24509 13.7916 3.29636 13.8378 3.37041 13.8724C5.23897 14.8818 7.56328 15.2163 9.64262 14.8645C10.218 14.7664 10.7991 14.6165 11.3004 14.3107C11.6479 14.1089 11.9498 13.8378 12.2404 13.5609C12.6619 13.1629 13.055 12.7533 13.4139 12.3034C13.5506 12.1361 13.6703 11.9516 13.7785 11.767C13.8241 11.692 13.8697 11.617 13.9038 11.5363C13.9209 11.4959 13.9494 11.4613 13.9209 11.4267C13.9039 11.3978 13.864 11.3805 13.8298 11.369C13.8013 11.3574 13.7728 11.3517 13.75 11.3401C13.7329 11.3286 13.7215 11.3113 13.7045 11.294C13.676 11.2652 13.6247 11.2479 13.5962 11.2363C13.5222 11.1959 13.4481 11.1613 13.374 11.1383C13.2202 11.0633 13.0607 10.9883 12.8955 10.9133C12.2632 10.6134 11.6308 10.3076 10.9985 10.0135C10.6851 9.86349 10.2864 9.7712 10.0072 10.0538C9.85341 10.2096 9.81353 10.4518 9.82492 10.6653C9.82492 10.7403 9.87049 10.896 9.79644 10.9537C9.81353 10.9941 9.78504 11.0287 9.80783 11.0517C9.82492 11.069 9.79074 11.2767 9.77935 11.3113C9.73377 11.6401 9.79644 12.1419 9.63123 12.4246C9.57426 12.5053 9.4945 12.5745 9.40336 12.6207C9.20966 12.7187 8.9647 12.7418 8.7881 12.6091C8.70834 12.5457 8.66277 12.4534 8.6058 12.3669C8.45768 12.1073 8.30957 11.8593 8.16715 11.6055C8.13866 11.5651 8.12157 11.5247 8.10448 11.4786C7.92218 11.0979 7.56328 10.7172 7.12462 10.746C6.82839 10.7633 6.56634 10.896 6.30428 11.0344C5.80296 11.2594 5.29025 11.519 4.78323 11.7785L4.79462 11.7843Z" fill="white"/>
<path d="M4.1224 8.12722C3.71222 8.00609 3.29066 7.90226 2.86909 7.82151C2.64692 7.78113 2.43044 7.74076 2.25384 7.60809C2.07724 7.47542 1.98039 7.21009 2.10002 7.02551C2.21966 6.82939 2.48171 6.82362 2.71528 6.82362C3.28496 6.82362 3.84895 6.77747 4.41863 6.69672C4.62941 6.65634 4.88007 6.60443 4.95983 6.39678C5.05098 6.17182 4.88577 5.94109 4.73765 5.75651C4.69208 5.69883 4.64081 5.63538 4.58954 5.5777C4.2876 5.2143 3.99137 4.84514 3.68944 4.48175C3.38751 4.11836 3.09127 3.74919 2.78934 3.3858C2.64122 3.20122 2.48741 3.02241 2.33929 2.83782C2.26523 2.74553 2.19117 2.65324 2.11142 2.57249C2.04875 2.4975 1.99178 2.39368 1.88354 2.39368C1.82088 2.39368 1.79239 2.43405 1.74682 2.47443C1.45058 2.79168 1.17144 3.1147 0.932173 3.46655C0.45364 4.15296 0.117526 4.9432 0.0434672 5.77382C-0.0476821 6.76594 0.014983 7.84458 0.134616 8.83671C0.231462 9.73077 0.447942 10.6075 0.818236 11.4151C0.909385 11.6112 1.01193 11.8015 1.12017 11.9977C1.13726 12.038 1.16574 12.0726 1.18283 12.1072C1.19992 12.1534 1.2455 12.1995 1.30247 12.2053C1.37652 12.2168 1.41071 12.1765 1.45628 12.1303C1.49616 12.0899 1.53604 12.0553 1.57592 12.0207C1.75252 11.8708 1.91772 11.715 2.08863 11.565C2.43044 11.2593 2.76655 10.9536 3.10836 10.6364C3.45017 10.3191 3.77489 10.0134 4.10531 9.69039C4.31609 9.48851 4.53827 9.27508 4.74905 9.06743C4.84589 8.96937 4.94844 8.86555 4.97122 8.71557C4.99971 8.45024 4.69778 8.27719 4.44142 8.19644C4.33318 8.1676 4.23064 8.13876 4.1167 8.11569L4.1224 8.12722Z" fill="white"/>
</svg>
