<svg width="28" height="26" viewBox="0 0 28 26" fill="none" xmlns="http://www.w3.org/2000/svg">
<path d="M14.0623 0C5.68586 0 0 4.28666 0 10.9557C0 15.0585 1.69969 18.3466 4.98258 20.4622C5.20133 20.6033 5.46 20.6247 5.3632 21.0309C4.97164 22.6739 4.29078 25.6025 4.29078 25.6025C4.2618 25.7265 4.30828 25.8561 4.40891 25.9335C4.50953 26.0103 4.6457 26.0219 4.75781 25.9615C4.75781 25.9615 9.56266 23.1031 10.2036 22.7463C11.6982 21.8889 12.9861 21.7226 13.953 21.7226C20.5964 21.7226 28 19.0542 28 10.8849C28 4.5485 22.9124 0 14.0623 0Z" fill="#3F8DEB"/>
</svg>
