<svg width="17" height="15" viewBox="0 0 17 15" fill="none" xmlns="http://www.w3.org/2000/svg">
<g clip-path="url(#clip0_22_1967)">
<path d="M8.08794 9.22726C8.19651 9.3671 8.34294 9.44382 8.49999 9.44382C8.65704 9.44382 8.80346 9.36677 8.91204 9.22726L11.8867 5.40469C11.9979 5.26194 12.0285 5.1234 11.9734 5.01496C11.9179 4.90652 11.7864 4.84664 11.6025 4.84664H10.4633C10.1548 4.84664 9.90415 4.60224 9.90415 4.30153V1.14837C9.90415 0.791006 9.60598 0.5 9.23942 0.5H7.76022C7.39366 0.5 7.0955 0.791006 7.0955 1.14837V4.30185C7.0955 4.60257 6.84448 4.84696 6.53636 4.84696H5.39716C5.21321 4.84696 5.08173 4.90684 5.02628 5.01528C4.97116 5.12372 5.00171 5.26227 5.11294 5.40534L8.08761 9.22791L8.08794 9.22726Z" fill="white"/>
<path d="M14.7827 8.73523V12.338H2.2173V8.73523H0V13.6765C0 14.1307 0.378848 14.5 0.844688 14.5H16.1553C16.6212 14.5 17 14.1307 17 13.6765V8.73523H14.7827Z" fill="white"/>
</g>
<defs>
<clipPath id="clip0_22_1967">
<rect width="17" height="14" fill="white" transform="translate(0 0.5)"/>
</clipPath>
</defs>
</svg>
