<svg width="125" height="38" viewBox="0 0 125 38" fill="none" xmlns="http://www.w3.org/2000/svg">
<g clip-path="url(#clip0_77_877)">
<path d="M41.8059 32.0277C41.928 32.0996 42.0309 32.1716 42.1273 32.2827C42.1788 32.3351 42.2495 32.3743 42.3138 32.4266C42.436 32.5313 42.5517 32.6555 42.6996 32.7405C42.7125 32.7536 42.7317 32.7536 42.7446 32.7536C42.7575 32.7536 42.7639 32.7405 42.7768 32.734C42.8218 32.6817 42.8603 32.6294 42.8861 32.577C42.9053 32.5443 42.9053 32.5051 42.9311 32.4659C42.9761 32.3808 43.0211 32.3089 43.0661 32.2239C43.1497 32.0473 43.2075 31.8642 43.2654 31.6745C43.3747 31.2756 43.439 30.8635 43.4712 30.4515C43.4905 30.1964 43.5162 29.9479 43.5162 29.6928C43.5355 29.065 43.484 28.4306 43.3747 27.8224C43.3104 27.4823 43.2075 27.1618 43.1047 26.8348C43.0597 26.7236 43.0532 26.5928 43.0147 26.462C43.0018 26.4162 42.9825 26.377 42.9504 26.3508C42.9375 26.3377 42.8411 26.2266 42.8603 26.2266C42.7575 26.2593 42.6546 26.3116 42.5646 26.3508C42.5196 26.3704 42.481 26.3835 42.4424 26.4162C42.2559 26.5405 42.0888 26.7105 41.8959 26.8479C41.5615 27.0702 41.2336 27.2795 40.8993 27.5019C40.7578 27.5935 40.237 27.8027 40.147 27.9401C40.1277 27.9532 40.1341 27.9728 40.1277 27.9924C40.1149 28.012 40.1084 28.012 40.0827 28.0251C40.0377 28.0578 40.012 28.0774 39.9734 28.1101C39.9027 28.1624 39.8191 28.2213 39.7484 28.2802C39.6969 28.3259 39.6648 28.3521 39.6262 28.3914C39.5876 28.4306 39.5362 28.4568 39.4912 28.4829C39.369 28.5679 39.2533 28.6595 39.1568 28.7838C38.9897 29.0061 38.9189 29.3135 39.0475 29.562C39.1118 29.6863 39.2147 29.7713 39.3176 29.8629C40.102 30.5758 40.9314 31.4521 41.838 32.0211L41.8059 32.0277Z" fill="white"/>
<path d="M42.301 24.5524C42.3203 24.5982 42.3524 24.644 42.3331 24.6963C42.3138 24.7421 42.2688 24.7683 42.2238 24.7813C41.0472 25.2784 39.8448 25.7362 38.6361 26.1678C38.3467 26.2725 38.0381 26.3771 37.7359 26.3052C37.3308 26.2136 37.0608 25.8343 36.9193 25.4419C36.7779 25.0495 36.7329 24.6309 36.585 24.245C36.495 23.9834 36.3149 23.7087 36.0449 23.6368C35.7234 23.5649 35.4019 23.8068 35.2476 24.1012C35.0933 24.3955 35.0418 24.729 34.9133 25.0429C34.7911 25.3438 34.5275 25.6512 34.2124 25.6643C33.9552 25.6773 33.7173 25.5204 33.5116 25.3634C32.65 24.7225 31.7948 24.0815 30.9397 23.4275C30.7211 23.2706 30.5153 23.1136 30.2967 22.9566C30.1938 22.8716 30.0781 22.7997 29.9752 22.7146C29.9109 22.6623 29.8209 22.6231 29.7695 22.5577C29.718 22.4923 29.6988 22.3876 29.7695 22.3353C29.8531 22.2699 29.9431 22.2241 30.0267 22.1653C30.2131 22.041 30.4125 21.9233 30.6118 21.8186C31.0168 21.6094 31.4412 21.4262 31.8591 21.2889C32.2899 21.1516 32.74 21.0469 33.1837 20.988C33.6402 20.9226 34.0902 20.8965 34.5403 20.8965H34.6818C35.8713 20.9161 37.0608 21.1581 38.186 21.557C38.7454 21.7598 39.3047 21.9887 39.832 22.2699C39.9413 22.3353 40.057 22.3746 40.1728 22.4465C40.2049 22.4661 40.2371 22.4923 40.2628 22.5184C40.2949 22.5511 40.3271 22.5838 40.3656 22.6035C40.5071 22.695 40.655 22.7931 40.7964 22.8847C40.9379 22.9763 41.0729 23.1071 41.2079 23.2248C41.5423 23.5191 41.8252 23.8461 42.076 24.2123C42.1531 24.317 42.2174 24.4282 42.2881 24.5459L42.301 24.5524Z" fill="white"/>
<path d="M31.7562 34.2579C31.4862 34.3953 31.2097 34.5391 30.9397 34.6765C30.8175 34.7419 30.6889 34.8138 30.5667 34.8858C30.2903 35.0427 30.0074 35.1997 29.7309 35.3567C29.5959 35.4286 29.4608 35.5005 29.3194 35.579C29.2358 35.6248 29.1651 35.664 29.0815 35.7033C29.0493 35.7164 28.9786 35.736 28.9722 35.7687C28.9593 35.7883 28.9593 35.8537 28.9722 35.8733C28.985 35.9387 29.0622 35.9845 29.1136 36.0172C29.2165 36.1022 29.3322 36.1742 29.448 36.2461C29.6023 36.3377 29.7566 36.4358 29.9238 36.5012C30.0074 36.5339 30.0652 36.5862 30.1488 36.6254C32.2577 37.77 34.8811 38.1493 37.2279 37.7503C37.8773 37.6392 38.5331 37.4691 39.099 37.1225C39.4912 36.8936 39.8319 36.5862 40.1599 36.2723C40.6357 35.821 41.0793 35.3567 41.4844 34.8465C41.6387 34.6569 41.7737 34.4476 41.8959 34.2383C41.9473 34.1533 41.9988 34.0682 42.0373 33.9767C42.0566 33.9309 42.0888 33.8917 42.0566 33.8524C42.0373 33.8197 41.9923 33.8001 41.9538 33.787C41.9216 33.7739 41.8895 33.7674 41.8637 33.7543C41.8444 33.7412 41.8316 33.7216 41.8123 33.702C41.7802 33.6693 41.7223 33.6497 41.6901 33.6366C41.6065 33.5908 41.523 33.5516 41.4394 33.5254C41.2658 33.4404 41.0857 33.3554 40.8993 33.2703C40.1856 32.9303 39.4719 32.5836 38.7582 32.2501C38.4046 32.08 37.9545 31.9754 37.6394 32.2959C37.4658 32.4724 37.4208 32.7471 37.4337 32.9891C37.4337 33.0741 37.4851 33.2507 37.4015 33.3161C37.4208 33.3619 37.3887 33.4011 37.4144 33.4273C37.4337 33.4469 37.3951 33.6824 37.3822 33.7216C37.3308 34.0944 37.4015 34.6634 37.2151 34.9839C37.1508 35.0754 37.0607 35.1539 36.9579 35.2062C36.7393 35.3174 36.4628 35.3436 36.2635 35.1931C36.1734 35.1212 36.122 35.0166 36.0577 34.9185C35.8905 34.6242 35.7234 34.3429 35.5626 34.0552C35.5305 34.0094 35.5112 33.9636 35.4919 33.9113C35.2861 33.4796 34.8811 33.048 34.386 33.0807C34.0516 33.1003 33.7559 33.2507 33.4601 33.4077C32.8943 33.6628 32.3156 33.9571 31.7434 34.2514L31.7562 34.2579Z" fill="white"/>
<path d="M30.9976 30.1117C30.5346 29.9744 30.0588 29.8567 29.583 29.7651C29.3323 29.7193 29.088 29.6736 28.8886 29.5231C28.6893 29.3727 28.58 29.0719 28.715 28.8626C28.8501 28.6402 29.1458 28.6337 29.4094 28.6337C30.0524 28.6337 30.689 28.5814 31.3319 28.4898C31.5698 28.444 31.8527 28.3851 31.9427 28.1497C32.0456 27.8946 31.8592 27.633 31.692 27.4237C31.6406 27.3583 31.5827 27.2864 31.5248 27.221C31.184 26.809 30.8497 26.3904 30.5089 25.9784C30.1681 25.5663 29.8338 25.1478 29.493 24.7357C29.3259 24.5265 29.1523 24.3237 28.9851 24.1144C28.9015 24.0098 28.8179 23.9051 28.7279 23.8136C28.6572 23.7286 28.5929 23.6108 28.4707 23.6108C28.4 23.6108 28.3678 23.6566 28.3164 23.7024C27.982 24.0621 27.667 24.4284 27.3969 24.8273C26.8568 25.6056 26.4775 26.5016 26.3939 27.4434C26.291 28.5683 26.3618 29.7913 26.4968 30.9162C26.6061 31.9299 26.8504 32.924 27.2683 33.8396C27.3712 34.062 27.487 34.2778 27.6091 34.5002C27.6284 34.546 27.6606 34.5852 27.6798 34.6244C27.6991 34.6768 27.7506 34.7291 27.8149 34.7356C27.8985 34.7487 27.937 34.7029 27.9885 34.6506C28.0335 34.6048 28.0785 34.5656 28.1235 34.5263C28.3228 34.3563 28.5093 34.1797 28.7022 34.0097C29.088 33.663 29.4673 33.3164 29.8531 32.9567C30.2389 32.597 30.6054 32.2504 30.9783 31.8841C31.2162 31.6552 31.467 31.4132 31.7048 31.1778C31.8142 31.0666 31.9299 30.9489 31.9556 30.7788C31.9878 30.478 31.647 30.2818 31.3576 30.1902C31.2355 30.1575 31.1197 30.1248 30.9912 30.0987L30.9976 30.1117Z" fill="white"/>
<path d="M41.8059 32.0277C41.928 32.0996 42.0309 32.1716 42.1273 32.2827C42.1788 32.3351 42.2495 32.3743 42.3138 32.4266C42.436 32.5313 42.5517 32.6555 42.6996 32.7405C42.7125 32.7536 42.7317 32.7536 42.7446 32.7536C42.7575 32.7536 42.7639 32.7405 42.7768 32.734C42.8218 32.6817 42.8603 32.6294 42.8861 32.577C42.9053 32.5443 42.9053 32.5051 42.9311 32.4659C42.9761 32.3808 43.0211 32.3089 43.0661 32.2239C43.1497 32.0473 43.2075 31.8642 43.2654 31.6745C43.3747 31.2756 43.439 30.8635 43.4712 30.4515C43.4905 30.1964 43.5162 29.9479 43.5162 29.6928C43.5355 29.065 43.484 28.4306 43.3747 27.8224C43.3104 27.4823 43.2075 27.1618 43.1047 26.8348C43.0597 26.7236 43.0532 26.5928 43.0147 26.462C43.0018 26.4162 42.9825 26.377 42.9504 26.3508C42.9375 26.3377 42.8411 26.2266 42.8603 26.2266C42.7575 26.2593 42.6546 26.3116 42.5646 26.3508C42.5196 26.3704 42.481 26.3835 42.4424 26.4162C42.2559 26.5405 42.0888 26.7105 41.8959 26.8479C41.5615 27.0702 41.2336 27.2795 40.8993 27.5019C40.7578 27.5935 40.237 27.8027 40.147 27.9401C40.1277 27.9532 40.1341 27.9728 40.1277 27.9924C40.1149 28.012 40.1084 28.012 40.0827 28.0251C40.0377 28.0578 40.012 28.0774 39.9734 28.1101C39.9027 28.1624 39.8191 28.2213 39.7484 28.2802C39.6969 28.3259 39.6648 28.3521 39.6262 28.3914C39.5876 28.4306 39.5362 28.4568 39.4912 28.4829C39.369 28.5679 39.2533 28.6595 39.1568 28.7838C38.9897 29.0061 38.9189 29.3135 39.0475 29.562C39.1118 29.6863 39.2147 29.7713 39.3176 29.8629C40.102 30.5758 40.9314 31.4521 41.838 32.0211L41.8059 32.0277Z" fill="white"/>
<path d="M42.301 24.5524C42.3203 24.5982 42.3524 24.644 42.3331 24.6963C42.3138 24.7421 42.2688 24.7683 42.2238 24.7813C41.0472 25.2784 39.8448 25.7362 38.6361 26.1678C38.3467 26.2725 38.0381 26.3771 37.7359 26.3052C37.3308 26.2136 37.0608 25.8343 36.9193 25.4419C36.7779 25.0495 36.7329 24.6309 36.585 24.245C36.495 23.9834 36.3149 23.7087 36.0449 23.6368C35.7234 23.5649 35.4019 23.8068 35.2476 24.1012C35.0933 24.3955 35.0418 24.729 34.9133 25.0429C34.7911 25.3438 34.5275 25.6512 34.2124 25.6643C33.9552 25.6773 33.7173 25.5204 33.5116 25.3634C32.65 24.7225 31.7948 24.0815 30.9397 23.4275C30.7211 23.2706 30.5153 23.1136 30.2967 22.9566C30.1938 22.8716 30.0781 22.7997 29.9752 22.7146C29.9109 22.6623 29.8209 22.6231 29.7695 22.5577C29.718 22.4923 29.6988 22.3876 29.7695 22.3353C29.8531 22.2699 29.9431 22.2241 30.0267 22.1653C30.2131 22.041 30.4125 21.9233 30.6118 21.8186C31.0168 21.6094 31.4412 21.4262 31.8591 21.2889C32.2899 21.1516 32.74 21.0469 33.1837 20.988C33.6402 20.9226 34.0902 20.8965 34.5403 20.8965H34.6818C35.8713 20.9161 37.0608 21.1581 38.186 21.557C38.7454 21.7598 39.3047 21.9887 39.832 22.2699C39.9413 22.3353 40.057 22.3746 40.1728 22.4465C40.2049 22.4661 40.2371 22.4923 40.2628 22.5184C40.2949 22.5511 40.3271 22.5838 40.3656 22.6035C40.5071 22.695 40.655 22.7931 40.7964 22.8847C40.9379 22.9763 41.0729 23.1071 41.2079 23.2248C41.5423 23.5191 41.8252 23.8461 42.076 24.2123C42.1531 24.317 42.2174 24.4282 42.2881 24.5459L42.301 24.5524Z" fill="white"/>
<path d="M31.7562 34.2579C31.4862 34.3953 31.2097 34.5391 30.9397 34.6765C30.8175 34.7419 30.6889 34.8138 30.5667 34.8858C30.2903 35.0427 30.0074 35.1997 29.7309 35.3567C29.5959 35.4286 29.4608 35.5005 29.3194 35.579C29.2358 35.6248 29.1651 35.664 29.0815 35.7033C29.0493 35.7164 28.9786 35.736 28.9722 35.7687C28.9593 35.7883 28.9593 35.8537 28.9722 35.8733C28.985 35.9387 29.0622 35.9845 29.1136 36.0172C29.2165 36.1022 29.3322 36.1742 29.448 36.2461C29.6023 36.3377 29.7566 36.4358 29.9238 36.5012C30.0074 36.5339 30.0652 36.5862 30.1488 36.6254C32.2577 37.77 34.8811 38.1493 37.2279 37.7503C37.8773 37.6392 38.5331 37.4691 39.099 37.1225C39.4912 36.8936 39.8319 36.5862 40.1599 36.2723C40.6357 35.821 41.0793 35.3567 41.4844 34.8465C41.6387 34.6569 41.7737 34.4476 41.8959 34.2383C41.9473 34.1533 41.9988 34.0682 42.0373 33.9767C42.0566 33.9309 42.0888 33.8917 42.0566 33.8524C42.0373 33.8197 41.9923 33.8001 41.9538 33.787C41.9216 33.7739 41.8895 33.7674 41.8637 33.7543C41.8444 33.7412 41.8316 33.7216 41.8123 33.702C41.7802 33.6693 41.7223 33.6497 41.6901 33.6366C41.6065 33.5908 41.523 33.5516 41.4394 33.5254C41.2658 33.4404 41.0857 33.3554 40.8993 33.2703C40.1856 32.9303 39.4719 32.5836 38.7582 32.2501C38.4046 32.08 37.9545 31.9754 37.6394 32.2959C37.4658 32.4724 37.4208 32.7471 37.4337 32.9891C37.4337 33.0741 37.4851 33.2507 37.4015 33.3161C37.4208 33.3619 37.3887 33.4011 37.4144 33.4273C37.4337 33.4469 37.3951 33.6824 37.3822 33.7216C37.3308 34.0944 37.4015 34.6634 37.2151 34.9839C37.1508 35.0754 37.0607 35.1539 36.9579 35.2062C36.7393 35.3174 36.4628 35.3436 36.2635 35.1931C36.1734 35.1212 36.122 35.0166 36.0577 34.9185C35.8905 34.6242 35.7234 34.3429 35.5626 34.0552C35.5305 34.0094 35.5112 33.9636 35.4919 33.9113C35.2861 33.4796 34.8811 33.048 34.386 33.0807C34.0516 33.1003 33.7559 33.2507 33.4601 33.4077C32.8943 33.6628 32.3156 33.9571 31.7434 34.2514L31.7562 34.2579Z" fill="white"/>
<path d="M30.9976 30.1117C30.5346 29.9744 30.0588 29.8567 29.583 29.7651C29.3323 29.7193 29.088 29.6736 28.8886 29.5231C28.6893 29.3727 28.58 29.0719 28.715 28.8626C28.8501 28.6402 29.1458 28.6337 29.4094 28.6337C30.0524 28.6337 30.689 28.5814 31.3319 28.4898C31.5698 28.444 31.8527 28.3851 31.9427 28.1497C32.0456 27.8946 31.8592 27.633 31.692 27.4237C31.6406 27.3583 31.5827 27.2864 31.5248 27.221C31.184 26.809 30.8497 26.3904 30.5089 25.9784C30.1681 25.5663 29.8338 25.1478 29.493 24.7357C29.3259 24.5265 29.1523 24.3237 28.9851 24.1144C28.9015 24.0098 28.8179 23.9051 28.7279 23.8136C28.6572 23.7286 28.5929 23.6108 28.4707 23.6108C28.4 23.6108 28.3678 23.6566 28.3164 23.7024C27.982 24.0621 27.667 24.4284 27.3969 24.8273C26.8568 25.6056 26.4775 26.5016 26.3939 27.4434C26.291 28.5683 26.3618 29.7913 26.4968 30.9162C26.6061 31.9299 26.8504 32.924 27.2683 33.8396C27.3712 34.062 27.487 34.2778 27.6091 34.5002C27.6284 34.546 27.6606 34.5852 27.6798 34.6244C27.6991 34.6768 27.7506 34.7291 27.8149 34.7356C27.8985 34.7487 27.937 34.7029 27.9885 34.6506C28.0335 34.6048 28.0785 34.5656 28.1235 34.5263C28.3228 34.3563 28.5093 34.1797 28.7022 34.0097C29.088 33.663 29.4673 33.3164 29.8531 32.9567C30.2389 32.597 30.6054 32.2504 30.9783 31.8841C31.2162 31.6552 31.467 31.4132 31.7048 31.1778C31.8142 31.0666 31.9299 30.9489 31.9556 30.7788C31.9878 30.478 31.647 30.2818 31.3576 30.1902C31.2355 30.1575 31.1197 30.1248 30.9912 30.0987L30.9976 30.1117Z" fill="white"/>
<path d="M61.0372 30.6347V29.8041C61.0372 28.4699 60.5614 27.7767 59.7834 27.1684V30.0069C59.7834 33.1723 57.3787 35.566 55.1475 36.1088C52.2606 36.7955 49.6116 34.343 49.6116 31.3541V30.2946C49.6116 27.9729 51.3219 25.6446 53.1672 24.8336V22.7211H55.8741V23.9311L56.4399 23.8591C56.6714 23.8395 56.9029 23.8264 57.115 23.8068L57.0893 22.126H59.9763L60.002 24.1534C61.738 24.9906 63.982 26.8807 63.982 29.9218V30.6936C63.982 33.9309 62.5674 36.1088 60.317 37.7831L57.7516 36.2004C60.4778 34.0225 61.0436 32.636 61.0436 30.6412L61.0372 30.6347ZM54.2088 33.6236C54.2795 33.6039 54.3696 33.5909 54.4724 33.5516C53.6944 32.4202 53.3601 31.1841 53.3601 28.7511V28.2083C52.7428 28.9474 52.3699 29.5163 52.3699 30.36V31.4391C52.3699 32.3221 53.2572 33.7805 54.2088 33.617V33.6236ZM56.4206 32.1324C56.8257 31.6288 57.1086 31.0337 57.1086 30.3666V26.3967C56.9479 26.3967 56.7871 26.4163 56.6328 26.4294C56.3692 26.4686 56.1184 26.5013 55.8741 26.5733V28.0317C55.8741 30.445 56.0349 31.3345 56.4206 32.1259V32.1324Z" fill="white"/>
<path d="M68.7335 27.2599L74.0445 22.3286H78.063L71.9741 28.2147C71.6204 28.5548 71.5497 28.6856 71.5497 28.7903C71.5497 28.9734 71.7619 29.2219 71.8841 29.3462L78.8924 36.475H74.861L68.7206 30.3534C68.3156 29.9413 68.0841 29.2742 68.0841 28.7903C68.0841 28.2147 68.3863 27.6 68.7399 27.2599H68.7335Z" fill="white"/>
<path d="M79.0339 25.272H77.3687V29.1045H79.0339V25.272Z" fill="white"/>
<path d="M81.3615 25.272H79.6962V29.1045H81.3615V25.272Z" fill="white"/>
<path d="M86.3702 30.7327L86.3895 22.3286H89.5208V24.3234C90.1573 23.7674 90.9739 23.3685 91.9255 23.2246C94.491 22.8126 97.005 24.3953 97.005 27.6327V29.7386C97.005 33.9505 93.9059 36.1087 89.5401 36.7431L88.087 33.7935C92.0155 33.5253 93.893 31.8707 93.893 29.7255V28.1755C93.9123 26.7367 93.1343 25.8341 91.7005 25.8341C90.2666 25.8341 89.5787 26.7171 89.5079 27.9924V30.7262H86.3767L86.3702 30.7327Z" fill="white"/>
<path d="M8.58366 0.125H12.0107C11.7214 1.72734 10.429 3.82018 8.79584 5.62526V14.8338H5.61957V8.67297C3.96713 10.0595 2.24397 11.2563 0.797284 12.0281L0 8.79723C3.57492 6.67823 8.07572 2.33557 8.58366 0.125Z" fill="white"/>
<path d="M40.6808 4.66386V3.02228H32.7722V0.125H43.9792V4.7358C43.9792 9.43817 40.2435 13.2772 35.1641 14.8665L34.1482 11.7141C37.7231 10.792 40.6808 7.62001 40.6808 4.66386Z" fill="white"/>
<path d="M49.6373 6.84808L49.7402 0.968486H52.7686L52.6657 6.88732C52.6657 10.0789 51.2705 12.7015 48.4221 14.657L47.7148 11.0992C49.1294 10.177 49.6373 8.12995 49.6373 6.85462V6.84808ZM55.5848 0.137888H58.6839L58.5811 10.8114C59.1983 10.589 60.5228 10.1836 61.5387 9.57532V13.1528C59.6355 14.0946 56.8965 14.7224 55.4819 14.814L55.5848 0.131348V0.137888Z" fill="white"/>
<path d="M78.1917 3.27735L73.7295 3.23811V11.8057H78.4618V14.8338H65.7502V11.8057H70.5211V3.22503L66.0589 3.18579V0.125H78.1917V3.27735Z" fill="white"/>
<path d="M106.347 7.20796V5.13474H103.12V8.24131H100.111V5.13474H97.5515V2.10011H100.111V0.0922852H103.12V2.10011H106.347V0.0922852H109.324V2.10011H111.993V5.1282H109.324V7.22104C109.324 11.4852 106.643 13.6696 101.654 15.0692L100.728 12.0281C104.335 11.2694 106.347 9.9352 106.347 7.20142V7.20796Z" fill="white"/>
<path d="M125 6.03711V9.0979H115.735V6.03711H125Z" fill="white"/>
<path d="M22.8576 0.125H17.0001V3.07461L22.8576 3.06153V0.125Z" fill="white"/>
<path d="M17.1544 11.6619V15.1151C23.4298 13.8267 27.4227 10.1708 28.8694 4.43506H25.513C24.6193 7.67897 21.8417 10.6874 17.1544 11.6685V11.6619Z" fill="white"/>
<path d="M88.6592 0.138184H82.8018V3.08779L88.6592 3.06817V0.138184Z" fill="white"/>
<path d="M82.9625 11.6751V15.1283C89.2379 13.8399 93.2308 10.1839 94.6775 4.44824H91.3211C90.4274 7.69215 87.6498 10.7006 82.9625 11.6816V11.6751Z" fill="white"/>
</g>
<defs>
<clipPath id="clip0_77_877">
<rect width="125" height="37.8151" fill="white" transform="translate(0 0.0922852)"/>
</clipPath>
</defs>
</svg>
