<svg width="265" height="80" viewBox="0 0 265 80" fill="none" xmlns="http://www.w3.org/2000/svg">
<g clip-path="url(#clip0_92_954)">
<path d="M88.6287 67.5614C88.8876 67.7136 89.1057 67.8658 89.3102 68.101C89.4192 68.2117 89.5692 68.2947 89.7055 68.4054C89.9645 68.6268 90.2099 68.8896 90.5234 69.0695C90.5506 69.0972 90.5915 69.0972 90.6188 69.0972C90.646 69.0972 90.6597 69.0695 90.6869 69.0557C90.7823 68.945 90.8641 68.8343 90.9187 68.7236C90.9595 68.6544 90.9595 68.5714 91.0141 68.4884C91.1095 68.3085 91.2049 68.1563 91.3003 67.9765C91.4775 67.6029 91.6002 67.2155 91.7229 66.8142C91.9546 65.9702 92.0909 65.0986 92.1591 64.2269C92.2 63.6873 92.2545 63.1615 92.2545 62.6219C92.2954 61.2937 92.1863 59.9516 91.9546 58.6648C91.8183 57.9453 91.6002 57.2674 91.3821 56.5756C91.2867 56.3404 91.2731 56.0636 91.1913 55.7869C91.164 55.6901 91.1231 55.6071 91.055 55.5517C91.0277 55.524 90.8232 55.2888 90.8641 55.2888C90.646 55.358 90.4279 55.4687 90.2371 55.5517C90.1417 55.5932 90.0599 55.6209 89.9781 55.6901C89.5828 55.9529 89.2284 56.3127 88.8195 56.6032C88.1107 57.0737 87.4155 57.5164 86.7067 57.9868C86.4068 58.1806 85.3027 58.6233 85.1119 58.9139C85.071 58.9415 85.0846 58.983 85.071 59.0246C85.0437 59.0661 85.0301 59.0661 84.9756 59.0937C84.8801 59.1629 84.8256 59.2044 84.7438 59.2736C84.5939 59.3843 84.4167 59.5088 84.2667 59.6333C84.1577 59.7302 84.0895 59.7855 84.0078 59.8686C83.926 59.9516 83.8169 60.0069 83.7215 60.0623C83.4625 60.2421 83.2172 60.4358 83.0127 60.6987C82.6583 61.1691 82.5083 61.8194 82.781 62.3452C82.9173 62.6081 83.1354 62.788 83.3535 62.9817C85.0164 64.4898 86.7748 66.3438 88.6968 67.5476L88.6287 67.5614Z" fill="#FF2929"/>
<path d="M89.6782 51.7468C89.7191 51.8437 89.7873 51.9405 89.7464 52.0512C89.7055 52.148 89.6101 52.2034 89.5147 52.2311C87.0202 53.2826 84.4712 54.2511 81.9086 55.1643C81.2952 55.3857 80.6409 55.6071 80.0002 55.4549C79.1415 55.2612 78.569 54.4587 78.2691 53.6285C77.9692 52.7983 77.8738 51.9128 77.5603 51.0965C77.3695 50.5431 76.9878 49.962 76.4153 49.8098C75.7337 49.6576 75.0522 50.1695 74.7251 50.7921C74.3979 51.4147 74.2889 52.1204 74.0162 52.7845C73.7573 53.421 73.1984 54.0713 72.5305 54.0989C71.9852 54.1266 71.4809 53.7945 71.0447 53.4625C69.2181 52.1065 67.4052 50.7506 65.5923 49.367C65.1288 49.0349 64.6926 48.7029 64.2292 48.3708C64.0111 48.1909 63.7657 48.0387 63.5476 47.8589C63.4113 47.7482 63.2205 47.6652 63.1115 47.5268C63.0024 47.3884 62.9615 47.1671 63.1115 47.0564C63.2887 46.918 63.4795 46.8212 63.6567 46.6966C64.052 46.4338 64.4746 46.1847 64.8971 45.9633C65.7559 45.5206 66.6555 45.1332 67.5415 44.8426C68.4548 44.5521 69.409 44.3307 70.3495 44.2062C71.3173 44.0678 72.2715 44.0125 73.2256 44.0125H73.5255C76.0473 44.054 78.569 44.5659 80.9544 45.4099C82.1403 45.8388 83.3262 46.3231 84.4439 46.918C84.6757 47.0564 84.921 47.1394 85.1664 47.2916C85.2345 47.3331 85.3027 47.3884 85.3572 47.4438C85.4254 47.513 85.4935 47.5821 85.5753 47.6237C85.8752 47.8174 86.1887 48.0249 86.4886 48.2186C86.7885 48.4123 87.0747 48.689 87.361 48.9381C88.0698 49.5607 88.6696 50.2525 89.2012 51.0273C89.3647 51.2487 89.501 51.4839 89.651 51.733L89.6782 51.7468Z" fill="#FF2929"/>
<path d="M67.3235 72.2795C66.751 72.57 66.1648 72.8744 65.5923 73.165C65.3334 73.3033 65.0607 73.4555 64.8017 73.6077C64.2156 73.9398 63.6159 74.2718 63.0297 74.6039C62.7435 74.7561 62.4572 74.9083 62.1573 75.0743C61.9801 75.1712 61.8302 75.2542 61.653 75.3372C61.5848 75.3649 61.4349 75.4064 61.4213 75.4756C61.394 75.5171 61.394 75.6554 61.4213 75.697C61.4485 75.8353 61.6121 75.9322 61.7211 76.0014C61.9392 76.1812 62.1846 76.3334 62.43 76.4856C62.7571 76.6793 63.0842 76.8869 63.4386 77.0252C63.6159 77.0944 63.7385 77.2051 63.9157 77.2881C68.3867 79.7094 73.9481 80.5119 78.9235 79.6679C80.3002 79.4327 81.6905 79.073 82.8901 78.3396C83.7216 77.8554 84.444 77.2051 85.1392 76.541C86.1479 75.5863 87.0884 74.6039 87.9472 73.5247C88.2743 73.1235 88.5606 72.6807 88.8195 72.2379C88.9286 72.0581 89.0376 71.8782 89.1194 71.6845C89.1603 71.5877 89.2285 71.5046 89.1603 71.4216C89.1194 71.3524 89.024 71.3109 88.9422 71.2833C88.8741 71.2556 88.8059 71.2418 88.7514 71.2141C88.7105 71.1864 88.6832 71.1449 88.6423 71.1034C88.5742 71.0342 88.4515 70.9927 88.3833 70.965C88.2061 70.8682 88.0289 70.7852 87.8517 70.7298C87.4837 70.5499 87.102 70.3701 86.7067 70.1902C85.1937 69.4707 83.6807 68.7374 82.1676 68.0318C81.4179 67.6721 80.4638 67.4507 79.7958 68.1286C79.4278 68.5022 79.3324 69.0833 79.3596 69.5953C79.3596 69.7751 79.4687 70.1487 79.2915 70.2871C79.3324 70.3839 79.2642 70.4669 79.3187 70.5223C79.3596 70.5638 79.2779 71.0619 79.2506 71.1449C79.1415 71.9336 79.2915 73.1373 78.8962 73.8153C78.7599 74.009 78.569 74.175 78.3509 74.2857C77.8875 74.5209 77.3014 74.5762 76.8788 74.258C76.688 74.1058 76.5789 73.8844 76.4426 73.6769C76.0882 73.0543 75.7338 72.4593 75.393 71.8505C75.3249 71.7537 75.284 71.6568 75.2431 71.5461C74.8069 70.633 73.9481 69.7198 72.8986 69.789C72.1897 69.8305 71.5627 70.1487 70.9357 70.4808C69.7362 71.0204 68.5094 71.643 67.2962 72.2656L67.3235 72.2795Z" fill="#FF2929"/>
<path d="M65.715 63.5074C64.7336 63.2169 63.7249 62.9678 62.7162 62.7741C62.1846 62.6773 61.6666 62.5804 61.244 62.2622C60.8215 61.944 60.5897 61.3075 60.876 60.8647C61.1622 60.3943 61.7893 60.3805 62.3481 60.3805C63.7112 60.3805 65.0607 60.2698 66.4238 60.0761C66.9281 59.9792 67.5279 59.8547 67.7187 59.3566C67.9368 58.817 67.5415 58.2636 67.1871 57.8208C67.0781 57.6825 66.9554 57.5303 66.8327 57.3919C66.1103 56.5202 65.4015 55.6347 64.679 54.763C63.9566 53.8914 63.2478 53.0059 62.5253 52.1342C62.1709 51.6914 61.8029 51.2625 61.4485 50.8198C61.2713 50.5984 61.0941 50.377 60.9033 50.1833C60.7533 50.0034 60.617 49.7544 60.358 49.7544C60.2081 49.7544 60.1399 49.8512 60.0309 49.9481C59.3221 50.7091 58.6541 51.4839 58.0816 52.3279C56.9366 53.9744 56.1324 55.8699 55.9552 57.8623C55.7371 60.2421 55.887 62.8295 56.1733 65.2093C56.405 67.3538 56.923 69.4569 57.809 71.394C58.0271 71.8644 58.2725 72.321 58.5315 72.7914C58.5724 72.8883 58.6405 72.9713 58.6814 73.0543C58.7223 73.165 58.8313 73.2757 58.9676 73.2895C59.1449 73.3172 59.2266 73.2203 59.3357 73.1096C59.4311 73.0128 59.5265 72.9298 59.6219 72.8468C60.0445 72.487 60.4398 72.1134 60.8487 71.7537C61.6666 71.0204 62.4708 70.2871 63.2887 69.5261C64.1065 68.7651 64.8835 68.0318 65.6741 67.257C66.1784 66.7727 66.7101 66.2608 67.2144 65.7627C67.4461 65.5275 67.6915 65.2784 67.746 64.9187C67.8142 64.2822 67.0917 63.8672 66.4783 63.6735C66.2193 63.6043 65.974 63.5351 65.7014 63.4798L65.715 63.5074Z" fill="#FF2929"/>
<path d="M88.6287 67.5614C88.8876 67.7136 89.1057 67.8658 89.3102 68.101C89.4192 68.2117 89.5692 68.2947 89.7055 68.4054C89.9645 68.6268 90.2099 68.8896 90.5234 69.0695C90.5506 69.0972 90.5915 69.0972 90.6188 69.0972C90.646 69.0972 90.6597 69.0695 90.6869 69.0557C90.7823 68.945 90.8641 68.8343 90.9187 68.7236C90.9595 68.6544 90.9595 68.5714 91.0141 68.4884C91.1095 68.3085 91.2049 68.1563 91.3003 67.9765C91.4775 67.6029 91.6002 67.2155 91.7229 66.8142C91.9546 65.9702 92.0909 65.0986 92.1591 64.2269C92.2 63.6873 92.2545 63.1615 92.2545 62.6219C92.2954 61.2937 92.1863 59.9516 91.9546 58.6648C91.8183 57.9453 91.6002 57.2674 91.3821 56.5756C91.2867 56.3404 91.2731 56.0636 91.1913 55.7869C91.164 55.6901 91.1231 55.6071 91.055 55.5517C91.0277 55.524 90.8232 55.2888 90.8641 55.2888C90.646 55.358 90.4279 55.4687 90.2371 55.5517C90.1417 55.5932 90.0599 55.6209 89.9781 55.6901C89.5828 55.9529 89.2284 56.3127 88.8195 56.6032C88.1107 57.0737 87.4155 57.5164 86.7067 57.9868C86.4068 58.1806 85.3027 58.6233 85.1119 58.9139C85.071 58.9415 85.0846 58.983 85.071 59.0246C85.0437 59.0661 85.0301 59.0661 84.9756 59.0937C84.8801 59.1629 84.8256 59.2044 84.7438 59.2736C84.5939 59.3843 84.4167 59.5088 84.2667 59.6333C84.1577 59.7302 84.0895 59.7855 84.0078 59.8686C83.926 59.9516 83.8169 60.0069 83.7215 60.0623C83.4625 60.2421 83.2172 60.4358 83.0127 60.6987C82.6583 61.1691 82.5083 61.8194 82.781 62.3452C82.9173 62.6081 83.1354 62.788 83.3535 62.9817C85.0164 64.4898 86.7748 66.3438 88.6968 67.5476L88.6287 67.5614Z" fill="#FF2929"/>
<path d="M89.6782 51.7468C89.7191 51.8437 89.7873 51.9405 89.7464 52.0512C89.7055 52.148 89.6101 52.2034 89.5147 52.2311C87.0202 53.2826 84.4712 54.2511 81.9086 55.1643C81.2952 55.3857 80.6409 55.6071 80.0002 55.4549C79.1415 55.2612 78.569 54.4587 78.2691 53.6285C77.9692 52.7983 77.8738 51.9128 77.5603 51.0965C77.3695 50.5431 76.9878 49.962 76.4153 49.8098C75.7337 49.6576 75.0522 50.1695 74.7251 50.7921C74.3979 51.4147 74.2889 52.1204 74.0162 52.7845C73.7573 53.421 73.1984 54.0713 72.5305 54.0989C71.9852 54.1266 71.4809 53.7945 71.0447 53.4625C69.2181 52.1065 67.4052 50.7506 65.5923 49.367C65.1288 49.0349 64.6926 48.7029 64.2292 48.3708C64.0111 48.1909 63.7657 48.0387 63.5476 47.8589C63.4113 47.7482 63.2205 47.6652 63.1115 47.5268C63.0024 47.3884 62.9615 47.1671 63.1115 47.0564C63.2887 46.918 63.4795 46.8212 63.6567 46.6966C64.052 46.4338 64.4746 46.1847 64.8971 45.9633C65.7559 45.5206 66.6555 45.1332 67.5415 44.8426C68.4548 44.5521 69.409 44.3307 70.3495 44.2062C71.3173 44.0678 72.2715 44.0125 73.2256 44.0125H73.5255C76.0473 44.054 78.569 44.5659 80.9544 45.4099C82.1403 45.8388 83.3262 46.3231 84.4439 46.918C84.6757 47.0564 84.921 47.1394 85.1664 47.2916C85.2345 47.3331 85.3027 47.3884 85.3572 47.4438C85.4254 47.513 85.4935 47.5821 85.5753 47.6237C85.8752 47.8174 86.1887 48.0249 86.4886 48.2186C86.7885 48.4123 87.0747 48.689 87.361 48.9381C88.0698 49.5607 88.6696 50.2525 89.2012 51.0273C89.3647 51.2487 89.501 51.4839 89.651 51.733L89.6782 51.7468Z" fill="#FF2929"/>
<path d="M67.3235 72.2795C66.751 72.57 66.1648 72.8744 65.5923 73.165C65.3334 73.3033 65.0607 73.4555 64.8017 73.6077C64.2156 73.9398 63.6159 74.2718 63.0297 74.6039C62.7435 74.7561 62.4572 74.9083 62.1573 75.0743C61.9801 75.1712 61.8302 75.2542 61.653 75.3372C61.5848 75.3649 61.4349 75.4064 61.4213 75.4756C61.394 75.5171 61.394 75.6554 61.4213 75.697C61.4485 75.8353 61.6121 75.9322 61.7211 76.0014C61.9392 76.1812 62.1846 76.3334 62.43 76.4856C62.7571 76.6793 63.0842 76.8869 63.4386 77.0252C63.6159 77.0944 63.7385 77.2051 63.9157 77.2881C68.3867 79.7094 73.9481 80.5119 78.9235 79.6679C80.3002 79.4327 81.6905 79.073 82.8901 78.3396C83.7216 77.8554 84.444 77.2051 85.1392 76.541C86.1479 75.5863 87.0884 74.6039 87.9472 73.5247C88.2743 73.1235 88.5606 72.6807 88.8195 72.2379C88.9286 72.0581 89.0376 71.8782 89.1194 71.6845C89.1603 71.5877 89.2285 71.5046 89.1603 71.4216C89.1194 71.3524 89.024 71.3109 88.9422 71.2833C88.8741 71.2556 88.8059 71.2418 88.7514 71.2141C88.7105 71.1864 88.6832 71.1449 88.6423 71.1034C88.5742 71.0342 88.4515 70.9927 88.3833 70.965C88.2061 70.8682 88.0289 70.7852 87.8517 70.7298C87.4837 70.5499 87.102 70.3701 86.7067 70.1902C85.1937 69.4707 83.6807 68.7374 82.1676 68.0318C81.4179 67.6721 80.4638 67.4507 79.7958 68.1286C79.4278 68.5022 79.3324 69.0833 79.3596 69.5953C79.3596 69.7751 79.4687 70.1487 79.2915 70.2871C79.3324 70.3839 79.2642 70.4669 79.3187 70.5223C79.3596 70.5638 79.2779 71.0619 79.2506 71.1449C79.1415 71.9336 79.2915 73.1373 78.8962 73.8153C78.7599 74.009 78.569 74.175 78.3509 74.2857C77.8875 74.5209 77.3014 74.5762 76.8788 74.258C76.688 74.1058 76.5789 73.8844 76.4426 73.6769C76.0882 73.0543 75.7338 72.4593 75.393 71.8505C75.3249 71.7537 75.284 71.6568 75.2431 71.5461C74.8069 70.633 73.9481 69.7198 72.8986 69.789C72.1897 69.8305 71.5627 70.1487 70.9357 70.4808C69.7362 71.0204 68.5094 71.643 67.2962 72.2656L67.3235 72.2795Z" fill="#FF2929"/>
<path d="M65.715 63.5074C64.7336 63.2169 63.7249 62.9678 62.7162 62.7741C62.1846 62.6773 61.6666 62.5804 61.244 62.2622C60.8215 61.944 60.5897 61.3075 60.876 60.8647C61.1622 60.3943 61.7893 60.3805 62.3481 60.3805C63.7112 60.3805 65.0607 60.2698 66.4238 60.0761C66.9281 59.9792 67.5279 59.8547 67.7187 59.3566C67.9368 58.817 67.5415 58.2636 67.1871 57.8208C67.0781 57.6825 66.9554 57.5303 66.8327 57.3919C66.1103 56.5202 65.4015 55.6347 64.679 54.763C63.9566 53.8914 63.2478 53.0059 62.5253 52.1342C62.1709 51.6914 61.8029 51.2625 61.4485 50.8198C61.2713 50.5984 61.0941 50.377 60.9033 50.1833C60.7533 50.0034 60.617 49.7544 60.358 49.7544C60.2081 49.7544 60.1399 49.8512 60.0309 49.9481C59.3221 50.7091 58.6541 51.4839 58.0816 52.3279C56.9366 53.9744 56.1324 55.8699 55.9552 57.8623C55.7371 60.2421 55.887 62.8295 56.1733 65.2093C56.405 67.3538 56.923 69.4569 57.809 71.394C58.0271 71.8644 58.2725 72.321 58.5315 72.7914C58.5724 72.8883 58.6405 72.9713 58.6814 73.0543C58.7223 73.165 58.8313 73.2757 58.9676 73.2895C59.1449 73.3172 59.2266 73.2203 59.3357 73.1096C59.4311 73.0128 59.5265 72.9298 59.6219 72.8468C60.0445 72.487 60.4398 72.1134 60.8487 71.7537C61.6666 71.0204 62.4708 70.2871 63.2887 69.5261C64.1065 68.7651 64.8835 68.0318 65.6741 67.257C66.1784 66.7727 66.7101 66.2608 67.2144 65.7627C67.4461 65.5275 67.6915 65.2784 67.746 64.9187C67.8142 64.2822 67.0917 63.8672 66.4783 63.6735C66.2193 63.6043 65.974 63.5351 65.7014 63.4798L65.715 63.5074Z" fill="#FF2929"/>
<path d="M129.399 64.6143V62.8572C129.399 60.0346 128.39 58.568 126.741 57.2812V63.2861C126.741 69.9827 121.643 75.0467 116.913 76.1951C110.793 77.6479 105.177 72.4594 105.177 66.1363V63.8949C105.177 58.9831 108.803 54.0574 112.715 52.3418V47.8727H118.453V50.4324L119.653 50.2802C120.144 50.2387 120.634 50.211 121.084 50.1695L121.03 46.6136H127.15L127.204 50.9028C130.885 52.6738 135.642 56.6725 135.642 63.1062V64.7389C135.642 71.5877 132.643 76.1951 127.872 79.7371L122.434 76.3888C128.213 71.7814 129.413 68.8482 129.413 64.6282L129.399 64.6143ZM114.923 70.9374C115.073 70.8959 115.264 70.8682 115.482 70.7852C113.832 68.3916 113.124 65.7766 113.124 60.6296V59.4812C111.815 61.0446 111.024 62.2484 111.024 64.0332V66.3162C111.024 68.184 112.905 71.2695 114.923 70.9236V70.9374ZM119.612 67.7828C120.471 66.7174 121.07 65.4583 121.07 64.0471V55.6486C120.73 55.6486 120.389 55.6901 120.062 55.7178C119.503 55.8008 118.971 55.87 118.453 56.0222V59.1076C118.453 64.2131 118.794 66.0948 119.612 67.769V67.7828Z" fill="#FF2929"/>
<path d="M145.715 57.475L156.974 47.0426H165.494L152.585 59.495C151.836 60.2145 151.686 60.4912 151.686 60.7126C151.686 61.1 152.135 61.6258 152.394 61.8887L167.252 76.97H158.706L145.688 64.0194C144.829 63.1478 144.339 61.7365 144.339 60.7126C144.339 59.495 144.979 58.1945 145.729 57.475H145.715Z" fill="#FF2929"/>
<path d="M167.552 53.2688H164.022V61.3767H167.552V53.2688Z" fill="#FF2929"/>
<path d="M172.486 53.2688H168.956V61.3767H172.486V53.2688Z" fill="#FF2929"/>
<path d="M183.105 64.8219L183.146 47.0426H189.784V51.2626C191.134 50.0865 192.865 49.2425 194.882 48.9381C200.321 48.0665 205.651 51.4148 205.651 58.2636V62.7188C205.651 71.6293 199.081 76.1951 189.825 77.5372L186.745 71.2972C195.073 70.7299 199.053 67.2294 199.053 62.6912V59.412C199.094 56.3681 197.445 54.4587 194.405 54.4587C191.365 54.4587 189.907 56.3266 189.757 59.0246V64.8081H183.119L183.105 64.8219Z" fill="#FF2929"/>
<path d="M18.1974 0.0692139H25.4627C24.8493 3.45904 22.1095 7.88658 18.6472 11.7053V31.1865H11.9135V18.1529C8.41032 21.0862 4.75721 23.6182 1.69024 25.2508L0 18.4158C7.57883 13.9329 17.1205 4.7458 18.1974 0.0692139Z" fill="#FF2929"/>
<path d="M86.2432 9.67143V6.19858H69.4771V0.0692139H93.2359V9.82362C93.2359 19.7717 85.3163 27.8935 74.5478 31.2557L72.3941 24.5867C79.973 22.6358 86.2432 15.9253 86.2432 9.67143Z" fill="#FF2929"/>
<path d="M105.231 14.2926L105.449 1.85402H111.869L111.651 14.3756C111.651 21.1276 108.693 26.6759 102.655 30.8129L101.156 23.2861C104.154 21.3352 105.231 17.0045 105.231 14.3065V14.2926ZM117.84 0.0968439H124.41L124.192 22.6773C125.5 22.2068 128.308 21.349 130.462 20.0623V27.6306C126.427 29.623 120.621 30.9512 117.622 31.1449L117.84 0.0830078V0.0968439Z" fill="#FF2929"/>
<path d="M165.766 6.73819L156.307 6.65517V24.7804H166.339V31.1865H139.391V24.7804H149.505V6.6275L140.045 6.54448V0.0692139H165.766V6.73819Z" fill="#FF2929"/>
<path d="M225.457 15.0536V10.6676H218.614V17.2397H212.234V10.6676H206.809V4.24766H212.234V0H218.614V4.24766H225.457V0H231.768V4.24766H237.425V10.6538H231.768V15.0813C231.768 24.1024 226.084 28.7236 215.506 31.6845L213.543 25.2508C221.19 23.6458 225.457 20.8232 225.457 15.0398V15.0536Z" fill="#FF2929"/>
<path d="M265 12.5769V19.0522H245.358V12.5769H265Z" fill="#FF2929"/>
<path d="M48.4582 0.0692139H36.0403V6.30927L48.4582 6.2816V0.0692139Z" fill="#FF2929"/>
<path d="M36.3675 24.476V31.7814C49.6713 29.0557 58.1362 21.3213 61.2032 9.18713H54.0878C52.1931 16.0498 46.3045 22.4144 36.3675 24.4898V24.476Z" fill="#FF2929"/>
<path d="M187.958 0.0968018H175.54V6.33686L187.958 6.29535V0.0968018Z" fill="#FF2929"/>
<path d="M175.881 24.5035V31.809C189.184 29.0833 197.649 21.3489 200.716 9.21472H193.601C191.706 16.0774 185.818 22.442 175.881 24.5174V24.5035Z" fill="#FF2929"/>
</g>
<defs>
<clipPath id="clip0_92_954">
<rect width="265" height="80" fill="white"/>
</clipPath>
</defs>
</svg>
