<svg width="165" height="38" viewBox="0 0 165 38" fill="none" xmlns="http://www.w3.org/2000/svg">
<g clip-path="url(#clip0_77_876)">
<path d="M61.8059 32.0277C61.928 32.0996 62.0309 32.1716 62.1273 32.2827C62.1788 32.3351 62.2495 32.3743 62.3138 32.4266C62.436 32.5313 62.5517 32.6555 62.6996 32.7405C62.7125 32.7536 62.7317 32.7536 62.7446 32.7536C62.7575 32.7536 62.7639 32.7405 62.7768 32.734C62.8218 32.6817 62.8603 32.6294 62.8861 32.577C62.9053 32.5443 62.9053 32.5051 62.9311 32.4659C62.9761 32.3808 63.0211 32.3089 63.0661 32.2239C63.1497 32.0473 63.2075 31.8642 63.2654 31.6745C63.3747 31.2756 63.439 30.8635 63.4712 30.4515C63.4905 30.1964 63.5162 29.9479 63.5162 29.6928C63.5355 29.065 63.484 28.4306 63.3747 27.8224C63.3104 27.4823 63.2075 27.1618 63.1047 26.8348C63.0597 26.7236 63.0532 26.5928 63.0147 26.462C63.0018 26.4162 62.9825 26.377 62.9504 26.3508C62.9375 26.3377 62.8411 26.2266 62.8603 26.2266C62.7575 26.2593 62.6546 26.3116 62.5646 26.3508C62.5196 26.3704 62.481 26.3835 62.4424 26.4162C62.2559 26.5405 62.0888 26.7105 61.8959 26.8479C61.5615 27.0702 61.2336 27.2795 60.8993 27.5019C60.7578 27.5935 60.237 27.8027 60.147 27.9401C60.1277 27.9532 60.1341 27.9728 60.1277 27.9924C60.1149 28.012 60.1084 28.012 60.0827 28.0251C60.0377 28.0578 60.012 28.0774 59.9734 28.1101C59.9027 28.1624 59.8191 28.2213 59.7484 28.2802C59.6969 28.3259 59.6648 28.3521 59.6262 28.3914C59.5876 28.4306 59.5362 28.4568 59.4912 28.4829C59.369 28.5679 59.2533 28.6595 59.1568 28.7838C58.9897 29.0061 58.9189 29.3135 59.0475 29.562C59.1118 29.6863 59.2147 29.7713 59.3176 29.8629C60.102 30.5758 60.9314 31.4521 61.838 32.0211L61.8059 32.0277Z" fill="white"/>
<path d="M62.301 24.5524C62.3203 24.5982 62.3524 24.644 62.3331 24.6963C62.3138 24.7421 62.2688 24.7683 62.2238 24.7813C61.0472 25.2784 59.8448 25.7362 58.6361 26.1678C58.3467 26.2725 58.0381 26.3771 57.7359 26.3052C57.3308 26.2136 57.0608 25.8343 56.9193 25.4419C56.7779 25.0495 56.7329 24.6309 56.585 24.245C56.495 23.9834 56.3149 23.7087 56.0449 23.6368C55.7234 23.5649 55.4019 23.8068 55.2476 24.1012C55.0933 24.3955 55.0418 24.729 54.9133 25.0429C54.7911 25.3438 54.5275 25.6512 54.2124 25.6643C53.9552 25.6773 53.7173 25.5204 53.5116 25.3634C52.65 24.7225 51.7948 24.0815 50.9397 23.4275C50.7211 23.2706 50.5153 23.1136 50.2967 22.9566C50.1938 22.8716 50.0781 22.7997 49.9752 22.7146C49.9109 22.6623 49.8209 22.6231 49.7695 22.5577C49.718 22.4923 49.6988 22.3876 49.7695 22.3353C49.8531 22.2699 49.9431 22.2241 50.0267 22.1653C50.2131 22.041 50.4125 21.9233 50.6118 21.8186C51.0168 21.6094 51.4412 21.4262 51.8591 21.2889C52.2899 21.1516 52.74 21.0469 53.1837 20.988C53.6402 20.9226 54.0902 20.8965 54.5403 20.8965H54.6818C55.8713 20.9161 57.0608 21.1581 58.186 21.557C58.7454 21.7598 59.3047 21.9887 59.832 22.2699C59.9413 22.3353 60.057 22.3746 60.1728 22.4465C60.2049 22.4661 60.2371 22.4923 60.2628 22.5184C60.2949 22.5511 60.3271 22.5838 60.3656 22.6035C60.5071 22.695 60.655 22.7931 60.7964 22.8847C60.9379 22.9763 61.0729 23.1071 61.2079 23.2248C61.5423 23.5191 61.8252 23.8461 62.076 24.2123C62.1531 24.317 62.2174 24.4282 62.2881 24.5459L62.301 24.5524Z" fill="white"/>
<path d="M51.7562 34.2579C51.4862 34.3953 51.2097 34.5391 50.9397 34.6765C50.8175 34.7419 50.6889 34.8138 50.5667 34.8858C50.2903 35.0427 50.0074 35.1997 49.7309 35.3567C49.5959 35.4286 49.4608 35.5005 49.3194 35.579C49.2358 35.6248 49.1651 35.664 49.0815 35.7033C49.0493 35.7164 48.9786 35.736 48.9722 35.7687C48.9593 35.7883 48.9593 35.8537 48.9722 35.8733C48.985 35.9387 49.0622 35.9845 49.1136 36.0172C49.2165 36.1022 49.3322 36.1742 49.448 36.2461C49.6023 36.3377 49.7566 36.4358 49.9238 36.5012C50.0074 36.5339 50.0652 36.5862 50.1488 36.6254C52.2577 37.77 54.8811 38.1493 57.2279 37.7503C57.8773 37.6392 58.5331 37.4691 59.099 37.1225C59.4912 36.8936 59.8319 36.5862 60.1599 36.2723C60.6357 35.821 61.0793 35.3567 61.4844 34.8465C61.6387 34.6569 61.7737 34.4476 61.8959 34.2383C61.9473 34.1533 61.9988 34.0682 62.0373 33.9767C62.0566 33.9309 62.0888 33.8917 62.0566 33.8524C62.0373 33.8197 61.9923 33.8001 61.9538 33.787C61.9216 33.7739 61.8895 33.7674 61.8637 33.7543C61.8444 33.7412 61.8316 33.7216 61.8123 33.702C61.7802 33.6693 61.7223 33.6497 61.6901 33.6366C61.6065 33.5908 61.523 33.5516 61.4394 33.5254C61.2658 33.4404 61.0857 33.3554 60.8993 33.2703C60.1856 32.9303 59.4719 32.5836 58.7582 32.2501C58.4046 32.08 57.9545 31.9754 57.6394 32.2959C57.4658 32.4724 57.4208 32.7471 57.4337 32.9891C57.4337 33.0741 57.4851 33.2507 57.4015 33.3161C57.4208 33.3619 57.3887 33.4011 57.4144 33.4273C57.4337 33.4469 57.3951 33.6824 57.3822 33.7216C57.3308 34.0944 57.4015 34.6634 57.2151 34.9839C57.1508 35.0754 57.0607 35.1539 56.9579 35.2062C56.7393 35.3174 56.4628 35.3436 56.2635 35.1931C56.1734 35.1212 56.122 35.0166 56.0577 34.9185C55.8905 34.6242 55.7234 34.3429 55.5626 34.0552C55.5305 34.0094 55.5112 33.9636 55.4919 33.9113C55.2861 33.4796 54.8811 33.048 54.386 33.0807C54.0516 33.1003 53.7559 33.2507 53.4601 33.4077C52.8943 33.6628 52.3156 33.9571 51.7434 34.2514L51.7562 34.2579Z" fill="white"/>
<path d="M50.9976 30.1117C50.5346 29.9744 50.0588 29.8567 49.583 29.7651C49.3323 29.7193 49.088 29.6736 48.8886 29.5231C48.6893 29.3727 48.58 29.0719 48.715 28.8626C48.8501 28.6402 49.1458 28.6337 49.4094 28.6337C50.0524 28.6337 50.689 28.5814 51.3319 28.4898C51.5698 28.444 51.8527 28.3851 51.9427 28.1497C52.0456 27.8946 51.8592 27.633 51.692 27.4237C51.6406 27.3583 51.5827 27.2864 51.5248 27.221C51.184 26.809 50.8497 26.3904 50.5089 25.9784C50.1681 25.5663 49.8338 25.1478 49.493 24.7357C49.3259 24.5265 49.1523 24.3237 48.9851 24.1144C48.9015 24.0098 48.8179 23.9051 48.7279 23.8136C48.6572 23.7286 48.5929 23.6108 48.4707 23.6108C48.4 23.6108 48.3678 23.6566 48.3164 23.7024C47.982 24.0621 47.667 24.4284 47.3969 24.8273C46.8568 25.6056 46.4775 26.5016 46.3939 27.4434C46.291 28.5683 46.3618 29.7913 46.4968 30.9162C46.6061 31.9299 46.8504 32.924 47.2683 33.8396C47.3712 34.062 47.487 34.2778 47.6091 34.5002C47.6284 34.546 47.6606 34.5852 47.6798 34.6244C47.6991 34.6768 47.7506 34.7291 47.8149 34.7356C47.8985 34.7487 47.937 34.7029 47.9885 34.6506C48.0335 34.6048 48.0785 34.5656 48.1235 34.5263C48.3228 34.3563 48.5093 34.1797 48.7022 34.0097C49.088 33.663 49.4673 33.3164 49.8531 32.9567C50.2389 32.597 50.6054 32.2504 50.9783 31.8841C51.2162 31.6552 51.467 31.4132 51.7048 31.1778C51.8142 31.0666 51.9299 30.9489 51.9556 30.7788C51.9878 30.478 51.647 30.2818 51.3576 30.1902C51.2355 30.1575 51.1197 30.1248 50.9912 30.0987L50.9976 30.1117Z" fill="white"/>
<path d="M61.8059 32.0277C61.928 32.0996 62.0309 32.1716 62.1273 32.2827C62.1788 32.3351 62.2495 32.3743 62.3138 32.4266C62.436 32.5313 62.5517 32.6555 62.6996 32.7405C62.7125 32.7536 62.7317 32.7536 62.7446 32.7536C62.7575 32.7536 62.7639 32.7405 62.7768 32.734C62.8218 32.6817 62.8603 32.6294 62.8861 32.577C62.9053 32.5443 62.9053 32.5051 62.9311 32.4659C62.9761 32.3808 63.0211 32.3089 63.0661 32.2239C63.1497 32.0473 63.2075 31.8642 63.2654 31.6745C63.3747 31.2756 63.439 30.8635 63.4712 30.4515C63.4905 30.1964 63.5162 29.9479 63.5162 29.6928C63.5355 29.065 63.484 28.4306 63.3747 27.8224C63.3104 27.4823 63.2075 27.1618 63.1047 26.8348C63.0597 26.7236 63.0532 26.5928 63.0147 26.462C63.0018 26.4162 62.9825 26.377 62.9504 26.3508C62.9375 26.3377 62.8411 26.2266 62.8603 26.2266C62.7575 26.2593 62.6546 26.3116 62.5646 26.3508C62.5196 26.3704 62.481 26.3835 62.4424 26.4162C62.2559 26.5405 62.0888 26.7105 61.8959 26.8479C61.5615 27.0702 61.2336 27.2795 60.8993 27.5019C60.7578 27.5935 60.237 27.8027 60.147 27.9401C60.1277 27.9532 60.1341 27.9728 60.1277 27.9924C60.1149 28.012 60.1084 28.012 60.0827 28.0251C60.0377 28.0578 60.012 28.0774 59.9734 28.1101C59.9027 28.1624 59.8191 28.2213 59.7484 28.2802C59.6969 28.3259 59.6648 28.3521 59.6262 28.3914C59.5876 28.4306 59.5362 28.4568 59.4912 28.4829C59.369 28.5679 59.2533 28.6595 59.1568 28.7838C58.9897 29.0061 58.9189 29.3135 59.0475 29.562C59.1118 29.6863 59.2147 29.7713 59.3176 29.8629C60.102 30.5758 60.9314 31.4521 61.838 32.0211L61.8059 32.0277Z" fill="white"/>
<path d="M62.301 24.5524C62.3203 24.5982 62.3524 24.644 62.3331 24.6963C62.3138 24.7421 62.2688 24.7683 62.2238 24.7813C61.0472 25.2784 59.8448 25.7362 58.6361 26.1678C58.3467 26.2725 58.0381 26.3771 57.7359 26.3052C57.3308 26.2136 57.0608 25.8343 56.9193 25.4419C56.7779 25.0495 56.7329 24.6309 56.585 24.245C56.495 23.9834 56.3149 23.7087 56.0449 23.6368C55.7234 23.5649 55.4019 23.8068 55.2476 24.1012C55.0933 24.3955 55.0418 24.729 54.9133 25.0429C54.7911 25.3438 54.5275 25.6512 54.2124 25.6643C53.9552 25.6773 53.7173 25.5204 53.5116 25.3634C52.65 24.7225 51.7948 24.0815 50.9397 23.4275C50.7211 23.2706 50.5153 23.1136 50.2967 22.9566C50.1938 22.8716 50.0781 22.7997 49.9752 22.7146C49.9109 22.6623 49.8209 22.6231 49.7695 22.5577C49.718 22.4923 49.6988 22.3876 49.7695 22.3353C49.8531 22.2699 49.9431 22.2241 50.0267 22.1653C50.2131 22.041 50.4125 21.9233 50.6118 21.8186C51.0168 21.6094 51.4412 21.4262 51.8591 21.2889C52.2899 21.1516 52.74 21.0469 53.1837 20.988C53.6402 20.9226 54.0902 20.8965 54.5403 20.8965H54.6818C55.8713 20.9161 57.0608 21.1581 58.186 21.557C58.7454 21.7598 59.3047 21.9887 59.832 22.2699C59.9413 22.3353 60.057 22.3746 60.1728 22.4465C60.2049 22.4661 60.2371 22.4923 60.2628 22.5184C60.2949 22.5511 60.3271 22.5838 60.3656 22.6035C60.5071 22.695 60.655 22.7931 60.7964 22.8847C60.9379 22.9763 61.0729 23.1071 61.2079 23.2248C61.5423 23.5191 61.8252 23.8461 62.076 24.2123C62.1531 24.317 62.2174 24.4282 62.2881 24.5459L62.301 24.5524Z" fill="white"/>
<path d="M51.7562 34.2579C51.4862 34.3953 51.2097 34.5391 50.9397 34.6765C50.8175 34.7419 50.6889 34.8138 50.5667 34.8858C50.2903 35.0427 50.0074 35.1997 49.7309 35.3567C49.5959 35.4286 49.4608 35.5005 49.3194 35.579C49.2358 35.6248 49.1651 35.664 49.0815 35.7033C49.0493 35.7164 48.9786 35.736 48.9722 35.7687C48.9593 35.7883 48.9593 35.8537 48.9722 35.8733C48.985 35.9387 49.0622 35.9845 49.1136 36.0172C49.2165 36.1022 49.3322 36.1742 49.448 36.2461C49.6023 36.3377 49.7566 36.4358 49.9238 36.5012C50.0074 36.5339 50.0652 36.5862 50.1488 36.6254C52.2577 37.77 54.8811 38.1493 57.2279 37.7503C57.8773 37.6392 58.5331 37.4691 59.099 37.1225C59.4912 36.8936 59.8319 36.5862 60.1599 36.2723C60.6357 35.821 61.0793 35.3567 61.4844 34.8465C61.6387 34.6569 61.7737 34.4476 61.8959 34.2383C61.9473 34.1533 61.9988 34.0682 62.0373 33.9767C62.0566 33.9309 62.0888 33.8917 62.0566 33.8524C62.0373 33.8197 61.9923 33.8001 61.9538 33.787C61.9216 33.7739 61.8895 33.7674 61.8637 33.7543C61.8444 33.7412 61.8316 33.7216 61.8123 33.702C61.7802 33.6693 61.7223 33.6497 61.6901 33.6366C61.6065 33.5908 61.523 33.5516 61.4394 33.5254C61.2658 33.4404 61.0857 33.3554 60.8993 33.2703C60.1856 32.9303 59.4719 32.5836 58.7582 32.2501C58.4046 32.08 57.9545 31.9754 57.6394 32.2959C57.4658 32.4724 57.4208 32.7471 57.4337 32.9891C57.4337 33.0741 57.4851 33.2507 57.4015 33.3161C57.4208 33.3619 57.3887 33.4011 57.4144 33.4273C57.4337 33.4469 57.3951 33.6824 57.3822 33.7216C57.3308 34.0944 57.4015 34.6634 57.2151 34.9839C57.1508 35.0754 57.0607 35.1539 56.9579 35.2062C56.7393 35.3174 56.4628 35.3436 56.2635 35.1931C56.1734 35.1212 56.122 35.0166 56.0577 34.9185C55.8905 34.6242 55.7234 34.3429 55.5626 34.0552C55.5305 34.0094 55.5112 33.9636 55.4919 33.9113C55.2861 33.4796 54.8811 33.048 54.386 33.0807C54.0516 33.1003 53.7559 33.2507 53.4601 33.4077C52.8943 33.6628 52.3156 33.9571 51.7434 34.2514L51.7562 34.2579Z" fill="white"/>
<path d="M50.9976 30.1117C50.5346 29.9744 50.0588 29.8567 49.583 29.7651C49.3323 29.7193 49.088 29.6736 48.8886 29.5231C48.6893 29.3727 48.58 29.0719 48.715 28.8626C48.8501 28.6402 49.1458 28.6337 49.4094 28.6337C50.0524 28.6337 50.689 28.5814 51.3319 28.4898C51.5698 28.444 51.8527 28.3851 51.9427 28.1497C52.0456 27.8946 51.8592 27.633 51.692 27.4237C51.6406 27.3583 51.5827 27.2864 51.5248 27.221C51.184 26.809 50.8497 26.3904 50.5089 25.9784C50.1681 25.5663 49.8338 25.1478 49.493 24.7357C49.3259 24.5265 49.1523 24.3237 48.9851 24.1144C48.9015 24.0098 48.8179 23.9051 48.7279 23.8136C48.6572 23.7286 48.5929 23.6108 48.4707 23.6108C48.4 23.6108 48.3678 23.6566 48.3164 23.7024C47.982 24.0621 47.667 24.4284 47.3969 24.8273C46.8568 25.6056 46.4775 26.5016 46.3939 27.4434C46.291 28.5683 46.3618 29.7913 46.4968 30.9162C46.6061 31.9299 46.8504 32.924 47.2683 33.8396C47.3712 34.062 47.487 34.2778 47.6091 34.5002C47.6284 34.546 47.6606 34.5852 47.6798 34.6244C47.6991 34.6768 47.7506 34.7291 47.8149 34.7356C47.8985 34.7487 47.937 34.7029 47.9885 34.6506C48.0335 34.6048 48.0785 34.5656 48.1235 34.5263C48.3228 34.3563 48.5093 34.1797 48.7022 34.0097C49.088 33.663 49.4673 33.3164 49.8531 32.9567C50.2389 32.597 50.6054 32.2504 50.9783 31.8841C51.2162 31.6552 51.467 31.4132 51.7048 31.1778C51.8142 31.0666 51.9299 30.9489 51.9556 30.7788C51.9878 30.478 51.647 30.2818 51.3576 30.1902C51.2355 30.1575 51.1197 30.1248 50.9912 30.0987L50.9976 30.1117Z" fill="white"/>
<path d="M81.0372 30.6347V29.8041C81.0372 28.4699 80.5614 27.7767 79.7834 27.1684V30.0069C79.7834 33.1723 77.3787 35.566 75.1475 36.1088C72.2606 36.7955 69.6116 34.343 69.6116 31.3541V30.2946C69.6116 27.9729 71.3219 25.6446 73.1672 24.8336V22.7211H75.8741V23.9311L76.4399 23.8591C76.6714 23.8395 76.9029 23.8264 77.115 23.8068L77.0893 22.126H79.9763L80.002 24.1534C81.738 24.9906 83.982 26.8807 83.982 29.9218V30.6936C83.982 33.9309 82.5674 36.1088 80.317 37.7831L77.7516 36.2004C80.4778 34.0225 81.0436 32.636 81.0436 30.6412L81.0372 30.6347ZM74.2088 33.6236C74.2795 33.6039 74.3696 33.5909 74.4724 33.5516C73.6944 32.4202 73.3601 31.1841 73.3601 28.7511V28.2083C72.7428 28.9474 72.3699 29.5163 72.3699 30.36V31.4391C72.3699 32.3221 73.2572 33.7805 74.2088 33.617V33.6236ZM76.4206 32.1324C76.8257 31.6288 77.1086 31.0337 77.1086 30.3666V26.3967C76.9479 26.3967 76.7871 26.4163 76.6328 26.4294C76.3692 26.4686 76.1184 26.5013 75.8741 26.5733V28.0317C75.8741 30.445 76.0349 31.3345 76.4206 32.1259V32.1324Z" fill="white"/>
<path d="M88.7335 27.2599L94.0445 22.3286H98.063L91.9741 28.2147C91.6204 28.5548 91.5497 28.6856 91.5497 28.7903C91.5497 28.9734 91.7619 29.2219 91.8841 29.3462L98.8924 36.475H94.861L88.7206 30.3534C88.3156 29.9413 88.0841 29.2742 88.0841 28.7903C88.0841 28.2147 88.3863 27.6 88.7399 27.2599H88.7335Z" fill="white"/>
<path d="M99.0339 25.272H97.3687V29.1045H99.0339V25.272Z" fill="white"/>
<path d="M101.361 25.272H99.6962V29.1045H101.361V25.272Z" fill="white"/>
<path d="M106.37 30.7327L106.39 22.3286H109.521V24.3234C110.157 23.7674 110.974 23.3685 111.926 23.2246C114.491 22.8126 117.005 24.3953 117.005 27.6327V29.7386C117.005 33.9505 113.906 36.1087 109.54 36.7431L108.087 33.7935C112.016 33.5253 113.893 31.8707 113.893 29.7255V28.1755C113.912 26.7367 113.134 25.8341 111.7 25.8341C110.267 25.8341 109.579 26.7171 109.508 27.9924V30.7262H106.377L106.37 30.7327Z" fill="white"/>
<path d="M28.5837 0.125H32.0107C31.7214 1.72734 30.429 3.82018 28.7958 5.62526V14.8338H25.6196V8.67297C23.9671 10.0595 22.244 11.2563 20.7973 12.0281L20 8.79723C23.5749 6.67823 28.0757 2.33557 28.5837 0.125Z" fill="white"/>
<path d="M60.6808 4.66386V3.02228H52.7722V0.125H63.9792V4.7358C63.9792 9.43817 60.2435 13.2772 55.1641 14.8665L54.1482 11.7141C57.7231 10.792 60.6808 7.62001 60.6808 4.66386Z" fill="white"/>
<path d="M69.6373 6.84808L69.7402 0.968486H72.7686L72.6657 6.88732C72.6657 10.0789 71.2705 12.7015 68.4221 14.657L67.7148 11.0992C69.1294 10.177 69.6373 8.12995 69.6373 6.85462V6.84808ZM75.5848 0.137888H78.6839L78.5811 10.8114C79.1983 10.589 80.5228 10.1836 81.5387 9.57532V13.1528C79.6355 14.0946 76.8965 14.7224 75.4819 14.814L75.5848 0.131348V0.137888Z" fill="white"/>
<path d="M98.1917 3.27735L93.7295 3.23811V11.8057H98.4618V14.8338H85.7502V11.8057H90.5211V3.22503L86.0589 3.18579V0.125H98.1917V3.27735Z" fill="white"/>
<path d="M126.347 7.20796V5.13474H123.12V8.24131H120.111V5.13474H117.552V2.10011H120.111V0.0922852H123.12V2.10011H126.347V0.0922852H129.324V2.10011H131.993V5.1282H129.324V7.22104C129.324 11.4852 126.643 13.6696 121.654 15.0692L120.728 12.0281C124.335 11.2694 126.347 9.9352 126.347 7.20142V7.20796Z" fill="white"/>
<path d="M145 6.03711V9.0979H135.735V6.03711H145Z" fill="white"/>
<path d="M42.8576 0.125H37.0001V3.07461L42.8576 3.06153V0.125Z" fill="white"/>
<path d="M37.1544 11.6619V15.1151C43.4298 13.8267 47.4227 10.1708 48.8694 4.43506H45.513C44.6193 7.67897 41.8417 10.6874 37.1544 11.6685V11.6619Z" fill="white"/>
<path d="M108.659 0.138184H102.802V3.08779L108.659 3.06817V0.138184Z" fill="white"/>
<path d="M102.963 11.6751V15.1283C109.238 13.8399 113.231 10.1839 114.677 4.44824H111.321C110.427 7.69215 107.65 10.7006 102.963 11.6816V11.6751Z" fill="white"/>
</g>
<defs>
<clipPath id="clip0_77_876">
<rect width="125" height="37.8151" fill="white" transform="translate(20 0.0922852)"/>
</clipPath>
</defs>
</svg>
