<svg width="14" height="13" viewBox="0 0 14 13" fill="none" xmlns="http://www.w3.org/2000/svg">
<path d="M12.196 2.02125C11.0814 0.86204 9.53034 0.116978 7.81053 0.0475248C7.37874 0.0300795 7.01444 0.366025 6.997 0.797646C6.97955 1.22943 7.3155 1.59373 7.74693 1.6114C9.05163 1.66452 10.2202 2.22611 11.0686 3.10658C11.9159 3.988 12.4346 5.17828 12.435 6.4975C12.4346 7.8505 11.8888 9.06812 11.0027 9.95578C10.115 10.8421 8.89722 11.3877 7.54445 11.3881C6.19164 11.3877 4.97345 10.842 4.08617 9.95578C3.2001 9.06812 2.65423 7.85053 2.65385 6.4975C2.65385 6.40227 2.65675 6.30779 2.66211 6.21411L3.59428 6.67423C3.69551 6.7241 3.81309 6.72487 3.90464 6.67658C3.99657 6.62769 4.0509 6.53611 4.04857 6.43333L3.95664 2.33631C3.95353 2.21914 3.87789 2.10779 3.76267 2.05018C3.64668 1.99355 3.51203 2.00072 3.41778 2.07036L0.109597 4.48886C0.0261988 4.54959 -0.013395 4.6483 0.00405035 4.75073C0.02073 4.85352 0.0928902 4.94605 0.194527 4.99611L1.1713 5.47816C1.11834 5.81082 1.08878 6.15087 1.08878 6.4975C1.08839 8.27764 1.8127 9.89661 2.97968 11.0624C4.14551 12.2292 5.76407 12.9535 7.54442 12.9531C9.32436 12.9535 10.9433 12.2292 12.1091 11.0624C13.2761 9.89661 14.0004 8.27767 14 6.49753C14.0004 4.76219 13.3121 3.17951 12.196 2.02125Z" fill="white"/>
</svg>
