<svg width="167" height="14" viewBox="0 0 167 14" fill="none" xmlns="http://www.w3.org/2000/svg">
<path d="M6.93296 0.822266H9.70095C9.46725 2.11646 8.42342 3.80684 7.10434 5.26479V12.7024H4.53888V7.7264C3.20422 8.84627 1.81244 9.81295 0.64396 10.4363L0 7.82676C2.88743 6.11526 6.52269 2.60773 6.93296 0.822266Z" fill="white"/>
<path d="M32.8575 4.48827V3.16238H26.4698V0.822266H35.5216V4.54638C35.5216 8.34444 32.5044 11.4452 28.4017 12.7289L27.5812 10.1827C30.4686 9.4379 32.8575 6.87593 32.8575 4.48827Z" fill="white"/>
<path d="M40.0917 6.2522L40.1748 1.5033H42.6208L42.5377 6.28389C42.5377 8.86172 41.4108 10.98 39.1102 12.5594L38.5389 9.68578C39.6814 8.94095 40.0917 7.28755 40.0917 6.25748V6.2522ZM44.8955 0.832431H47.3986L47.3155 9.45335C47.814 9.27375 48.8839 8.94624 49.7044 8.45497V11.3445C48.1672 12.1051 45.9549 12.6122 44.8124 12.6862L44.8955 0.827148V0.832431Z" fill="white"/>
<path d="M63.1549 3.36839L59.5508 3.3367V10.2567H63.373V12.7024H53.106V10.2567H56.9593V3.32614L53.3552 3.29444V0.822266H63.1549V3.36839Z" fill="white"/>
<path d="M85.896 6.54318V4.86865H83.289V7.3778H80.8585V4.86865H78.7916V2.4176H80.8585V0.795898H83.289V2.4176H85.896V0.795898H88.3004V2.4176H90.4556V4.86337H88.3004V6.55374C88.3004 9.99788 86.1348 11.7622 82.1049 12.8927L81.3571 10.4363C84.2705 9.82356 85.896 8.74595 85.896 6.5379V6.54318Z" fill="white"/>
<path d="M100.961 5.59766V8.06983H93.478V5.59766H100.961Z" fill="white"/>
<path d="M18.4619 0.822266H13.7308V3.20464L18.4619 3.19407V0.822266Z" fill="white"/>
<path d="M13.8554 10.1401V12.9292C18.924 11.8886 22.149 8.93568 23.3175 4.303H20.6066C19.8848 6.92308 17.6413 9.353 13.8554 10.1454V10.1401Z" fill="white"/>
<path d="M71.6093 0.833008H66.8783V3.21538L71.6093 3.19953V0.833008Z" fill="white"/>
<path d="M67.0081 10.1511V12.9402C72.0767 11.8996 75.3017 8.94673 76.4702 4.31404H73.7593C73.0375 6.93412 70.794 9.36404 67.0081 10.1564V10.1511Z" fill="white"/>
<path d="M121.526 8.99058C121.625 9.04868 121.708 9.10679 121.786 9.19659C121.827 9.23885 121.885 9.27054 121.936 9.3128C122.035 9.39732 122.129 9.49769 122.248 9.56636C122.258 9.57692 122.274 9.57692 122.284 9.57692C122.295 9.57692 122.3 9.56636 122.31 9.56108C122.347 9.51882 122.378 9.47656 122.399 9.4343C122.414 9.40789 122.414 9.37619 122.435 9.3445C122.471 9.27583 122.508 9.21772 122.544 9.14905C122.612 9.00642 122.658 8.85852 122.705 8.70533C122.793 8.3831 122.845 8.0503 122.871 7.71751C122.887 7.5115 122.908 7.31076 122.908 7.10475C122.923 6.59764 122.882 6.08524 122.793 5.59398C122.741 5.31929 122.658 5.06045 122.575 4.79633C122.539 4.70653 122.534 4.60088 122.503 4.49523C122.492 4.45825 122.477 4.42656 122.451 4.40543C122.44 4.39487 122.362 4.30506 122.378 4.30506C122.295 4.33148 122.212 4.37374 122.139 4.40543C122.103 4.42128 122.071 4.43184 122.04 4.45825C121.89 4.55862 121.755 4.69596 121.599 4.80689C121.329 4.9865 121.064 5.15553 120.794 5.33514C120.68 5.40909 120.259 5.57813 120.186 5.68906C120.171 5.69963 120.176 5.71547 120.171 5.73132C120.16 5.74717 120.155 5.74717 120.134 5.75773C120.098 5.78414 120.077 5.79999 120.046 5.8264C119.989 5.86866 119.921 5.9162 119.864 5.96374C119.823 6.00072 119.797 6.02185 119.766 6.05355C119.735 6.08524 119.693 6.10637 119.657 6.1275C119.558 6.19617 119.464 6.27013 119.387 6.37049C119.252 6.55009 119.194 6.79837 119.298 6.9991C119.35 7.09947 119.433 7.16814 119.516 7.24209C120.15 7.81788 120.82 8.52572 121.552 8.98529L121.526 8.99058Z" fill="white"/>
<path d="M121.926 2.95288C121.942 2.98985 121.968 3.02683 121.952 3.06909C121.936 3.10607 121.9 3.1272 121.864 3.13776C120.913 3.53923 119.942 3.90899 118.966 4.25764C118.732 4.34215 118.483 4.42667 118.239 4.36857C117.912 4.29461 117.694 3.98823 117.579 3.67129C117.465 3.35434 117.429 3.01627 117.309 2.7046C117.237 2.49331 117.091 2.27144 116.873 2.21334C116.613 2.15523 116.354 2.35068 116.229 2.58839C116.104 2.8261 116.063 3.0955 115.959 3.34906C115.86 3.59205 115.647 3.84032 115.393 3.85089C115.185 3.86145 114.993 3.73467 114.827 3.6079C114.131 3.09022 113.44 2.57254 112.75 2.0443C112.573 1.91752 112.407 1.79074 112.23 1.66396C112.147 1.59529 112.054 1.53719 111.971 1.46851C111.919 1.42626 111.846 1.39456 111.805 1.34174C111.763 1.28891 111.747 1.20439 111.805 1.16213C111.872 1.10931 111.945 1.07233 112.012 1.02479C112.163 0.924425 112.324 0.829342 112.485 0.744823C112.812 0.575785 113.155 0.427877 113.492 0.316946C113.84 0.206015 114.204 0.121496 114.562 0.0739546C114.931 0.0211304 115.294 0 115.658 0H115.772C116.733 0.0158473 117.694 0.211297 118.602 0.533525C119.054 0.69728 119.506 0.882165 119.932 1.10931C120.02 1.16213 120.114 1.19383 120.207 1.25194C120.233 1.26778 120.259 1.28891 120.28 1.31004C120.306 1.33645 120.332 1.36287 120.363 1.37871C120.477 1.45267 120.597 1.5319 120.711 1.60586C120.825 1.67981 120.934 1.78546 121.043 1.88054C121.313 2.11825 121.542 2.38237 121.744 2.67819C121.807 2.76271 121.859 2.85251 121.916 2.94759L121.926 2.95288Z" fill="white"/>
<path d="M113.409 10.7923C113.191 10.9032 112.968 11.0195 112.75 11.1304C112.651 11.1832 112.547 11.2413 112.448 11.2994C112.225 11.4262 111.997 11.553 111.773 11.6798C111.664 11.7379 111.555 11.796 111.441 11.8594C111.373 11.8963 111.316 11.928 111.249 11.9597C111.223 11.9703 111.166 11.9861 111.161 12.0126C111.15 12.0284 111.15 12.0812 111.161 12.0971C111.171 12.1499 111.233 12.1869 111.275 12.2133C111.358 12.282 111.451 12.3401 111.545 12.3982C111.669 12.4721 111.794 12.5514 111.929 12.6042C111.997 12.6306 112.043 12.6729 112.111 12.7046C113.814 13.629 115.933 13.9354 117.829 13.6131C118.353 13.5233 118.883 13.386 119.34 13.106C119.657 12.9211 119.932 12.6729 120.197 12.4193C120.581 12.0548 120.939 11.6798 121.267 11.2677C121.391 11.1145 121.5 10.9455 121.599 10.7765C121.64 10.7078 121.682 10.6391 121.713 10.5652C121.729 10.5282 121.755 10.4965 121.729 10.4648C121.713 10.4384 121.677 10.4225 121.646 10.412C121.62 10.4014 121.594 10.3961 121.573 10.3856C121.557 10.375 121.547 10.3592 121.531 10.3433C121.505 10.3169 121.459 10.301 121.433 10.2905C121.365 10.2535 121.298 10.2218 121.23 10.2007C121.09 10.132 120.945 10.0633 120.794 9.99467C120.218 9.71998 119.641 9.44001 119.065 9.17061C118.779 9.03326 118.415 8.94875 118.161 9.20759C118.021 9.35021 117.984 9.57207 117.995 9.76752C117.995 9.83619 118.036 9.97882 117.969 10.0316C117.984 10.0686 117.958 10.1003 117.979 10.1214C117.995 10.1373 117.964 10.3275 117.953 10.3592C117.912 10.6603 117.969 11.1198 117.818 11.3787C117.766 11.4526 117.694 11.516 117.611 11.5583C117.434 11.6481 117.211 11.6692 117.05 11.5477C116.977 11.4896 116.935 11.4051 116.883 11.3258C116.748 11.0881 116.613 10.861 116.484 10.6286C116.458 10.5916 116.442 10.5546 116.426 10.5123C116.26 10.1637 115.933 9.81506 115.533 9.84148C115.263 9.85732 115.024 9.97882 114.785 10.1056C114.328 10.3116 113.861 10.5493 113.399 10.787L113.409 10.7923Z" fill="white"/>
<path d="M112.796 7.4427C112.423 7.33177 112.038 7.23669 111.654 7.16273C111.451 7.12576 111.254 7.08878 111.093 6.96728C110.932 6.84579 110.844 6.6028 110.953 6.43376C111.062 6.25416 111.301 6.24887 111.514 6.24887C112.033 6.24887 112.547 6.20661 113.066 6.13266C113.259 6.09568 113.487 6.04814 113.56 5.85797C113.643 5.65196 113.492 5.44066 113.357 5.27163C113.316 5.2188 113.269 5.16069 113.222 5.10787C112.947 4.77508 112.677 4.437 112.402 4.10421C112.127 3.77142 111.856 3.43334 111.581 3.10055C111.446 2.93151 111.306 2.76775 111.171 2.59872C111.103 2.5142 111.036 2.42968 110.963 2.35573C110.906 2.28705 110.854 2.19197 110.755 2.19197C110.698 2.19197 110.672 2.22895 110.631 2.26592C110.361 2.55646 110.106 2.85227 109.888 3.1745C109.452 3.80311 109.146 4.5268 109.078 5.28747C108.995 6.19605 109.052 7.18386 109.161 8.09244C109.249 8.91122 109.447 9.71414 109.784 10.4537C109.867 10.6333 109.961 10.8076 110.06 10.9872C110.075 11.0242 110.101 11.0559 110.117 11.0876C110.132 11.1298 110.174 11.1721 110.226 11.1774C110.293 11.1879 110.324 11.151 110.366 11.1087C110.402 11.0717 110.439 11.04 110.475 11.0083C110.636 10.871 110.787 10.7284 110.942 10.591C111.254 10.3111 111.56 10.0311 111.872 9.74056C112.184 9.45002 112.48 9.17005 112.781 8.87424C112.973 8.68935 113.176 8.4939 113.368 8.30374C113.456 8.21394 113.549 8.11885 113.57 7.98151C113.596 7.73852 113.321 7.58004 113.087 7.50609C112.989 7.47968 112.895 7.45327 112.791 7.43214L112.796 7.4427Z" fill="white"/>
<path d="M121.526 8.99058C121.625 9.04868 121.708 9.10679 121.786 9.19659C121.827 9.23885 121.885 9.27054 121.936 9.3128C122.035 9.39732 122.129 9.49769 122.248 9.56636C122.258 9.57692 122.274 9.57692 122.284 9.57692C122.295 9.57692 122.3 9.56636 122.31 9.56108C122.347 9.51882 122.378 9.47656 122.399 9.4343C122.414 9.40789 122.414 9.37619 122.435 9.3445C122.471 9.27583 122.508 9.21772 122.544 9.14905C122.612 9.00642 122.658 8.85852 122.705 8.70533C122.793 8.3831 122.845 8.0503 122.871 7.71751C122.887 7.5115 122.908 7.31076 122.908 7.10475C122.923 6.59764 122.882 6.08524 122.793 5.59398C122.741 5.31929 122.658 5.06045 122.575 4.79633C122.539 4.70653 122.534 4.60088 122.503 4.49523C122.492 4.45825 122.477 4.42656 122.451 4.40543C122.44 4.39487 122.362 4.30506 122.378 4.30506C122.295 4.33148 122.212 4.37374 122.139 4.40543C122.103 4.42128 122.071 4.43184 122.04 4.45825C121.89 4.55862 121.755 4.69596 121.599 4.80689C121.329 4.9865 121.064 5.15553 120.794 5.33514C120.68 5.40909 120.259 5.57813 120.186 5.68906C120.171 5.69963 120.176 5.71547 120.171 5.73132C120.16 5.74717 120.155 5.74717 120.134 5.75773C120.098 5.78414 120.077 5.79999 120.046 5.8264C119.989 5.86866 119.921 5.9162 119.864 5.96374C119.823 6.00072 119.797 6.02185 119.766 6.05355C119.735 6.08524 119.693 6.10637 119.657 6.1275C119.558 6.19617 119.464 6.27013 119.387 6.37049C119.252 6.55009 119.194 6.79837 119.298 6.9991C119.35 7.09947 119.433 7.16814 119.516 7.24209C120.15 7.81788 120.82 8.52572 121.552 8.98529L121.526 8.99058Z" fill="white"/>
<path d="M121.926 2.95288C121.942 2.98985 121.968 3.02683 121.952 3.06909C121.936 3.10607 121.9 3.1272 121.864 3.13776C120.913 3.53923 119.942 3.90899 118.966 4.25764C118.732 4.34215 118.483 4.42667 118.239 4.36857C117.912 4.29461 117.694 3.98823 117.579 3.67129C117.465 3.35434 117.429 3.01627 117.309 2.7046C117.237 2.49331 117.091 2.27144 116.873 2.21334C116.613 2.15523 116.354 2.35068 116.229 2.58839C116.104 2.8261 116.063 3.0955 115.959 3.34906C115.86 3.59205 115.647 3.84032 115.393 3.85089C115.185 3.86145 114.993 3.73467 114.827 3.6079C114.131 3.09022 113.44 2.57254 112.75 2.0443C112.573 1.91752 112.407 1.79074 112.23 1.66396C112.147 1.59529 112.054 1.53719 111.971 1.46851C111.919 1.42626 111.846 1.39456 111.805 1.34174C111.763 1.28891 111.747 1.20439 111.805 1.16213C111.872 1.10931 111.945 1.07233 112.012 1.02479C112.163 0.924425 112.324 0.829342 112.485 0.744823C112.812 0.575785 113.155 0.427877 113.492 0.316946C113.84 0.206015 114.204 0.121496 114.562 0.0739546C114.931 0.0211304 115.294 0 115.658 0H115.772C116.733 0.0158473 117.694 0.211297 118.602 0.533525C119.054 0.69728 119.506 0.882165 119.932 1.10931C120.02 1.16213 120.114 1.19383 120.207 1.25194C120.233 1.26778 120.259 1.28891 120.28 1.31004C120.306 1.33645 120.332 1.36287 120.363 1.37871C120.477 1.45267 120.597 1.5319 120.711 1.60586C120.825 1.67981 120.934 1.78546 121.043 1.88054C121.313 2.11825 121.542 2.38237 121.744 2.67819C121.807 2.76271 121.859 2.85251 121.916 2.94759L121.926 2.95288Z" fill="white"/>
<path d="M113.409 10.7923C113.191 10.9032 112.968 11.0195 112.75 11.1304C112.651 11.1832 112.547 11.2413 112.448 11.2994C112.225 11.4262 111.997 11.553 111.773 11.6798C111.664 11.7379 111.555 11.796 111.441 11.8594C111.373 11.8963 111.316 11.928 111.249 11.9597C111.223 11.9703 111.166 11.9861 111.161 12.0126C111.15 12.0284 111.15 12.0812 111.161 12.0971C111.171 12.1499 111.233 12.1869 111.275 12.2133C111.358 12.282 111.451 12.3401 111.545 12.3982C111.669 12.4721 111.794 12.5514 111.929 12.6042C111.997 12.6306 112.043 12.6729 112.111 12.7046C113.814 13.629 115.933 13.9354 117.829 13.6131C118.353 13.5233 118.883 13.386 119.34 13.106C119.657 12.9211 119.932 12.6729 120.197 12.4193C120.581 12.0548 120.939 11.6798 121.267 11.2677C121.391 11.1145 121.5 10.9455 121.599 10.7765C121.64 10.7078 121.682 10.6391 121.713 10.5652C121.729 10.5282 121.755 10.4965 121.729 10.4648C121.713 10.4384 121.677 10.4225 121.646 10.412C121.62 10.4014 121.594 10.3961 121.573 10.3856C121.557 10.375 121.547 10.3592 121.531 10.3433C121.505 10.3169 121.459 10.301 121.433 10.2905C121.365 10.2535 121.298 10.2218 121.23 10.2007C121.09 10.132 120.945 10.0633 120.794 9.99467C120.218 9.71998 119.641 9.44001 119.065 9.17061C118.779 9.03326 118.415 8.94875 118.161 9.20759C118.021 9.35021 117.984 9.57207 117.995 9.76752C117.995 9.83619 118.036 9.97882 117.969 10.0316C117.984 10.0686 117.958 10.1003 117.979 10.1214C117.995 10.1373 117.964 10.3275 117.953 10.3592C117.912 10.6603 117.969 11.1198 117.818 11.3787C117.766 11.4526 117.694 11.516 117.611 11.5583C117.434 11.6481 117.211 11.6692 117.05 11.5477C116.977 11.4896 116.935 11.4051 116.883 11.3258C116.748 11.0881 116.613 10.861 116.484 10.6286C116.458 10.5916 116.442 10.5546 116.426 10.5123C116.26 10.1637 115.933 9.81506 115.533 9.84148C115.263 9.85732 115.024 9.97882 114.785 10.1056C114.328 10.3116 113.861 10.5493 113.399 10.787L113.409 10.7923Z" fill="white"/>
<path d="M112.796 7.4427C112.423 7.33177 112.038 7.23669 111.654 7.16273C111.451 7.12576 111.254 7.08878 111.093 6.96728C110.932 6.84579 110.844 6.6028 110.953 6.43376C111.062 6.25416 111.301 6.24887 111.514 6.24887C112.033 6.24887 112.547 6.20661 113.066 6.13266C113.259 6.09568 113.487 6.04814 113.56 5.85797C113.643 5.65196 113.492 5.44066 113.357 5.27163C113.316 5.2188 113.269 5.16069 113.222 5.10787C112.947 4.77508 112.677 4.437 112.402 4.10421C112.127 3.77142 111.856 3.43334 111.581 3.10055C111.446 2.93151 111.306 2.76775 111.171 2.59872C111.103 2.5142 111.036 2.42968 110.963 2.35573C110.906 2.28705 110.854 2.19197 110.755 2.19197C110.698 2.19197 110.672 2.22895 110.631 2.26592C110.361 2.55646 110.106 2.85227 109.888 3.1745C109.452 3.80311 109.146 4.5268 109.078 5.28747C108.995 6.19605 109.052 7.18386 109.161 8.09244C109.249 8.91122 109.447 9.71414 109.784 10.4537C109.867 10.6333 109.961 10.8076 110.06 10.9872C110.075 11.0242 110.101 11.0559 110.117 11.0876C110.132 11.1298 110.174 11.1721 110.226 11.1774C110.293 11.1879 110.324 11.151 110.366 11.1087C110.402 11.0717 110.439 11.04 110.475 11.0083C110.636 10.871 110.787 10.7284 110.942 10.591C111.254 10.3111 111.56 10.0311 111.872 9.74056C112.184 9.45002 112.48 9.17005 112.781 8.87424C112.973 8.68935 113.176 8.4939 113.368 8.30374C113.456 8.21394 113.549 8.11885 113.57 7.98151C113.596 7.73852 113.321 7.58004 113.087 7.50609C112.989 7.47968 112.895 7.45327 112.791 7.43214L112.796 7.4427Z" fill="white"/>
<path d="M137.059 7.86462V7.19376C137.059 6.11614 136.675 5.55621 136.046 5.06494V7.35751C136.046 9.91421 134.104 11.8476 132.302 12.286C129.97 12.8407 127.831 10.8598 127.831 8.44569V7.58994C127.831 5.71468 129.212 3.83413 130.703 3.17911V1.47289H132.889V2.45014L133.346 2.39203C133.533 2.37618 133.72 2.36562 133.891 2.34977L133.871 0.992188H136.202L136.223 2.62974C137.625 3.30589 139.438 4.83251 139.438 7.28884V7.91217C139.438 10.527 138.295 12.286 136.478 13.6383L134.405 12.36C136.607 10.6009 137.064 9.48105 137.064 7.86991L137.059 7.86462ZM131.544 10.2787C131.601 10.2628 131.674 10.2523 131.757 10.2206C131.128 9.30673 130.858 8.30835 130.858 6.34329V5.90485C130.36 6.50176 130.059 6.96133 130.059 7.64276V8.51436C130.059 9.22749 130.775 10.4055 131.544 10.2734V10.2787ZM133.33 9.0743C133.658 8.66755 133.886 8.18685 133.886 7.64805V4.44161C133.756 4.44161 133.626 4.45746 133.502 4.46802C133.289 4.49972 133.086 4.52613 132.889 4.58424V5.76222C132.889 7.71143 133.019 8.42984 133.33 9.06902V9.0743Z" fill="white"/>
<path d="M143.275 5.1392L147.565 1.15625H150.811L145.893 5.91043C145.607 6.18512 145.55 6.29077 145.55 6.37529C145.55 6.5232 145.721 6.72393 145.82 6.82429L151.481 12.5821H148.225L143.265 7.63779C142.938 7.30499 142.751 6.76619 142.751 6.37529C142.751 5.91043 142.995 5.41389 143.281 5.1392H143.275Z" fill="white"/>
<path d="M151.595 3.5332H150.25V6.6287H151.595V3.5332Z" fill="white"/>
<path d="M153.475 3.5332H152.13V6.6287H153.475V3.5332Z" fill="white"/>
<path d="M157.521 7.94417L157.536 1.15625H160.065V2.76739C160.579 2.31838 161.239 1.99616 162.007 1.87994C164.08 1.54715 166.11 2.8255 166.11 5.4403V7.14124C166.11 10.5431 163.607 12.2863 160.081 12.7987L158.907 10.4163C162.08 10.1998 163.597 8.86331 163.597 7.13067V5.87874C163.612 4.7166 162.984 3.98763 161.826 3.98763C160.668 3.98763 160.112 4.70076 160.055 5.73083V7.93888H157.526L157.521 7.94417Z" fill="white"/>
</svg>
